<?xml version="1.0" encoding="UTF-8" standalone="no"?>
<!-- Created with Inkscape (http://www.inkscape.org/) -->
<svg
   xmlns:svg="http://www.w3.org/2000/svg"
   xmlns="http://www.w3.org/2000/svg"
   version="1.0"
   width="300"
   height="300"
   id="svg2">
  <defs
     id="defs4" />
  <g
     transform="translate(-181.94143,-226.53466)"
     style="display:inline"
     id="layer2" />
  <g
     transform="translate(-181.94143,-226.53466)"
     style="display:inline"
     id="layer3" />
  <g
     transform="translate(-181.94143,-226.53466)"
     style="display:inline"
     id="layer4">
    <g
       transform="matrix(1.0068965,0,0,1.0068965,-2.2892338,-2.5967701)"
       id="g15991">
      <path
         d="M 616.46822 343.92355 A 189.93886 189.93886 0 1 1  236.5905,343.92355 A 189.93886 189.93886 0 1 1  616.46822 343.92355 z"
         transform="matrix(0.7634036,0,0,0.7634036,6.3273824,113.98218)"
         style="fill:#000000;fill-opacity:1;fill-rule:evenodd;stroke:none;stroke-width:1px;stroke-linecap:butt;stroke-linejoin:miter;stroke-opacity:1;display:inline"
         id="path2237" />
      <path
         d="M 330.91157,247.20775 C 323.41742,247.19577 321.73115,254.15405 322.46642,256.7503 C 317.60539,257.33131 314.52801,261.6034 316.50233,264.83761 C 318.83526,263.91709 321.30875,263.29709 324.13637,263.09609 C 329.05595,262.84182 332.05131,265.87423 329.1462,267.10396 C 320.23982,267.24028 311.33345,267.37319 302.42708,267.50952 C 302.00659,270.34136 305.53662,276.2293 310.87223,276.40794 C 317.53184,276.26822 323.69064,270.68638 329.36091,270.27686 C 330.62995,270.15089 331.9486,269.7223 331.91354,272.51935 C 331.91354,276.5172 324.6066,273.7675 324.56304,274.60475 C 324.56257,278.85921 327.69551,279.59333 329.6949,279.36613 C 332.1487,279.22981 332.82689,280.47374 332.96322,283.06387 C 331.82721,299.46796 311.72878,301.56164 305.95782,301.7434 C 303.3677,301.42531 300.79463,301.36965 298.2045,301.05156 C 297.20481,306.64077 300.29136,314.1453 309.10686,314.55426 C 311.28801,314.73603 314.00764,314.09986 315.6435,312.64576 C 314.28186,316.26261 312.66536,319.16621 310.49053,322.3553 L 278.80928,322.25987 C 290.09702,300.11454 292.4751,260.38602 282.76943,259.70849 C 265.00793,258.34287 222.15658,292.15866 210.15067,330.89587 C 225.94785,332.81516 238.41618,322.55403 254.21337,307.42121 C 241.95949,325.72823 231.4891,334.94855 203.7333,351.48391 C 198.34455,379.53499 204.23937,412.68655 213.4667,430.32919 C 234.72646,414.97492 247.13856,393.62604 259.31863,368.97063 C 259.90918,381.8889 244.55817,409.64725 236.51195,422.1226 C 255.70479,423.45134 273.12619,418.57411 281.9106,405.0653 C 287.54982,400.13525 303.0146,372.67364 311.13465,363.88922 L 312.01733,370.736 C 296.95834,395.90814 286.77227,410.46631 281.45733,411.72123 C 280.97796,414.86064 283.65795,417.73385 283.62826,419.16441 C 283.03398,425.42739 272.45469,437.17746 268.62261,437.41453 C 264.55149,434.42275 249.94936,418.91426 237.51391,430.04292 C 242.01941,431.77131 256.68829,439.34164 253.99866,441.15998 C 251.773,441.19143 226.60853,436.55874 228.52007,455.92707 C 240.19966,453.10274 248.09541,450.76932 256.43201,447.6012 C 248.41467,456.54259 243.45951,465.4648 243.71657,476.20498 C 259.66131,474.10434 268.32726,458.44447 268.62261,455.35452 C 272.96858,458.99453 276.04881,461.44432 280.57465,464.63464 C 282.64493,456.60709 282.73465,450.10863 274.37199,442.71064 C 274.61557,441.29532 287.08768,427.3089 288.59039,426.70302 C 290.78884,428.20711 293.52691,432.31959 295.36559,431.66515 C 299.3394,415.30061 314.82922,384.36484 321.32132,383.37987 C 314.96534,402.63799 317.50562,416.57861 318.4347,425.22393 C 318.6674,428.15734 306.06505,427.78418 300.0653,426.77459 C 297.80313,435.42606 306.47203,437.71442 308.91601,437.84395 C 313.61995,437.73034 318.58929,434.69567 322.65727,429.87592 C 324.93192,438.79658 324.27469,449.49292 312.68531,450.65481 C 307.54237,450.9391 302.14956,447.31414 299.08719,444.69072 C 281.75326,458.78747 277.51059,479.98529 282.43544,496.24432 C 287.71101,492.06809 292.36405,488.02279 296.74926,482.57463 C 297.33075,494.67059 299.05574,504.8761 303.8346,506.28785 C 307.26099,497.434 321.8636,457.80002 327.0707,452.25319 C 315.1918,479.40581 322.65442,502.21401 331.50798,510.0333 C 331.65107,510.15997 331.65974,510.15996 331.84197,510.0333 C 340.69553,502.21402 348.15815,479.40581 336.27925,452.25319 C 341.48635,457.80001 356.11282,497.434 359.53921,506.28785 C 364.31807,504.8761 366.04306,494.67059 366.62455,482.57463 C 371.00977,488.02279 375.63895,492.06808 380.91451,496.24432 C 385.83936,479.9853 381.62054,458.78747 364.28662,444.69072 C 361.22425,447.31414 355.80759,450.93909 350.66464,450.65481 C 339.07526,449.49293 338.44189,438.79659 340.71654,429.87592 C 344.78453,434.69566 349.73,437.73034 354.43395,437.84395 C 356.87793,437.71442 365.57068,435.42606 363.30851,426.77459 C 357.30877,427.78419 344.68255,428.15732 344.91526,425.22393 C 345.84434,416.57863 348.38462,402.63799 342.02864,383.37987 C 348.52073,384.36484 364.01055,415.30061 367.98436,431.66515 C 369.82304,432.3196 372.56113,428.20712 374.75957,426.70302 C 376.26227,427.30889 388.7344,441.29532 388.97796,442.71064 C 380.6153,450.10862 380.70503,456.60709 382.77531,464.63464 C 387.30114,461.44433 390.40523,458.99453 394.7512,455.35452 C 395.04655,458.44447 403.68864,474.10435 419.63339,476.20498 C 419.89044,465.4648 414.93529,456.54259 406.91794,447.6012 C 415.25455,450.76932 423.15029,453.10275 434.82989,455.92707 C 436.74143,436.55873 411.57694,441.19143 409.35129,441.15998 C 406.66168,439.34164 421.33055,431.77131 425.83604,430.04292 C 413.40059,418.91427 398.82232,434.42276 394.7512,437.41453 C 390.91912,437.17746 380.33982,425.42739 379.74555,419.16441 C 379.71587,417.73385 382.372,414.86063 381.89262,411.72123 C 376.57768,410.46632 366.39162,395.90815 351.33262,370.736 L 352.2153,363.88922 C 360.33535,372.67364 375.82397,400.13524 381.46321,405.0653 C 390.24761,418.57412 407.66902,423.45134 426.86186,422.1226 C 418.81563,409.64725 403.46463,381.88889 404.05518,368.97063 C 416.23525,393.62605 428.62349,414.97492 449.88325,430.32919 C 459.11057,412.68655 465.02926,379.53499 459.64051,351.48391 C 431.88469,334.94855 421.39047,325.72823 409.13659,307.42121 C 424.93377,322.55403 437.4021,332.81515 453.19929,330.89587 C 441.19339,292.15867 398.36588,258.34286 380.60438,259.70849 C 370.89872,260.38602 373.27679,300.11454 384.56453,322.25987 L 351.11791,322.3553 C 350.37262,321.37915 349.2868,319.73504 349.68653,319.03926 C 358.31388,302.19894 360.50026,298.00185 360.49346,286.73775 C 360.50922,276.69912 358.05846,266.79882 352.04831,257.70455 C 354.66502,255.10548 356.02601,249.905 354.50552,247.35089 C 351.65586,248.67895 348.16773,249.50063 345.2731,249.56953 C 341.89541,249.56011 337.34719,247.21717 330.91157,247.20775 z M 334.13218,253.88753 C 335.72088,253.88753 337.0188,255.18547 337.0188,256.77415 C 337.01879,258.36284 335.72086,259.63692 334.13218,259.63692 C 332.54351,259.63692 331.26942,258.36284 331.26942,256.77415 C 331.26943,255.18547 332.5435,253.88753 334.13218,253.88753 z "
         style="fill:#ffffff;fill-opacity:1;fill-rule:evenodd;stroke:none;stroke-width:1px;stroke-linecap:butt;stroke-linejoin:miter;stroke-opacity:1;display:inline"
         id="path3209" />
      <path
         d="M 246.60319,329.79848 L 246.60319,359.33266 L 269.79157,359.33266 L 269.79157,352.7483 L 255.21533,352.7483 L 255.21533,346.97506 L 268.38405,346.97506 L 268.38405,340.86783 L 255.21533,340.86783 L 255.21533,336.31127 L 269.14745,336.31127 L 269.14745,329.79848 L 246.60319,329.79848 z M 316.62161,329.98933 L 308.98758,334.14034 L 308.98758,338.07664 L 306.22024,338.07664 L 306.22024,344.04073 L 308.98758,344.04073 L 308.98758,354.13197 C 309.02449,356.73408 310.20484,359.71359 314.56996,359.83364 C 318.0992,359.78597 319.59785,359.266 320.77262,358.66468 L 320.74876,352.9153 C 319.55292,353.34167 316.65481,354.53649 316.62161,352.7483 L 316.62161,344.04073 L 320.70105,344.04073 L 320.70105,338.07664 L 316.62161,338.07664 L 316.62161,329.98933 z M 386.1152,329.98933 L 386.1152,359.38037 L 393.60609,359.38037 L 393.60609,347.97703 C 393.62028,343.39808 399.65937,342.68197 399.64175,345.92538 L 399.64175,359.38037 L 407.13265,359.38037 L 407.13265,342.84791 C 407.20685,339.75273 402.93029,337.71746 400.45287,337.69494 C 397.97545,337.67242 393.61102,339.30342 393.60609,341.17797 L 393.55838,329.98933 L 386.1152,329.98933 z M 419.08469,329.98933 L 411.45065,334.14034 L 411.45065,338.07664 L 408.68331,338.07664 L 408.68331,344.04073 L 411.45065,344.04073 L 411.45065,354.13197 C 411.48756,356.73408 412.66793,359.71359 417.03304,359.83364 C 420.56228,359.78597 422.06092,359.266 423.2357,358.66468 L 423.2357,352.9153 C 422.03985,353.34167 419.11788,354.53649 419.08469,352.7483 L 419.08469,344.04073 L 423.16413,344.04073 L 423.16413,338.07664 L 419.08469,338.07664 L 419.08469,329.98933 z M 335.03872,337.43252 C 333.18774,337.42527 331.57886,338.50696 330.21974,341.13025 L 330.21974,338.07664 L 322.80041,338.07664 L 322.80041,359.35651 L 330.26745,359.35651 L 330.21974,348.0486 C 330.28077,345.99247 333.3349,341.51684 336.18383,344.61328 L 338.64103,338.52991 C 337.35338,337.84417 336.14931,337.43686 335.03872,337.43252 z M 373.35204,337.5518 C 368.1044,337.56397 361.9487,339.8635 361.9487,348.93128 C 361.94871,357.99907 368.95994,359.93455 373.78146,359.95292 C 378.94389,360.0076 383.73907,357.06335 384.44525,352.22346 L 377.67004,351.48391 C 377.20738,353.28589 375.49048,354.58277 373.56675,354.70452 C 371.37516,354.72888 369.66549,353.39883 369.70202,349.07442 C 369.73856,344.75001 371.34932,342.78802 373.63832,342.8002 C 375.92732,342.81237 376.80131,344.7061 377.28834,345.8061 L 384.01584,344.92341 C 383.38271,339.32267 378.59969,337.53962 373.35204,337.5518 z M 349.40025,337.57565 C 342.64066,337.5887 339.05413,340.70762 338.68875,343.68288 L 345.96494,344.47014 C 347.32678,341.89414 352.40546,341.63668 352.54929,344.54171 C 352.61597,348.06745 338.21651,345.06712 338.28319,353.63099 C 338.28387,356.29473 339.69084,359.95849 345.10611,359.95292 C 350.52171,359.94736 351.36313,358.07935 353.00256,356.89931 C 352.99537,357.59801 353.17345,358.6436 353.45584,359.35651 L 360.58889,359.35651 C 359.51883,357.1903 359.64585,350.08201 359.51535,345.01884 C 359.12387,339.64249 356.15984,337.5626 349.40025,337.57565 z M 297.70352,337.64722 C 295.2261,337.6247 290.86166,339.25573 290.85674,341.13025 L 290.85674,338.07664 L 283.3897,338.07664 L 283.3897,359.33266 L 290.85674,359.33266 L 290.85674,347.92932 C 290.87092,343.35037 296.93388,342.63425 296.91626,345.87767 L 296.91626,359.33266 L 304.3833,359.33266 L 304.3833,342.8002 C 304.4575,339.70502 300.18094,337.66974 297.70352,337.64722 z M 272.48734,338.07664 L 272.48734,359.33266 L 279.90667,359.33266 L 279.90667,338.07664 L 272.48734,338.07664 z M 352.764,348.76429 C 352.76401,351.25566 352.16979,356.02427 348.18358,355.96891 C 346.85485,356.02427 345.12232,354.51501 345.17768,353.297 C 345.15923,350.17816 352.06272,349.55784 352.764,348.76429 z "
         style="fill:#ff2a2a;fill-opacity:1;fill-rule:evenodd;stroke:none;stroke-width:1px;stroke-linecap:butt;stroke-linejoin:miter;stroke-opacity:1"
         id="path7124" />
      <path
         d="M 272.4922,329.79385 L 279.91097,329.79385 L 279.91097,335.64616 L 272.4922,335.64616 L 272.4922,329.79385 z "
         style="fill:#ff2a2a;fill-opacity:1;fill-rule:evenodd;stroke:none;stroke-width:1px;stroke-linecap:butt;stroke-linejoin:miter;stroke-opacity:1"
         id="path8097" />
      <path
         d="M 272.67236,208.22401 L 272.67236,203.21327 L 276.10742,203.21327 L 276.10742,204.06093 L 273.68408,204.06093 L 273.68408,205.24696 L 275.77588,205.24696 L 275.77588,206.09462 L 273.68408,206.09462 L 273.68408,208.22401 L 272.67236,208.22401 z M 276.94824,208.22401 L 276.94824,203.21327 L 279.07764,203.21327 C 279.61312,203.21328 280.00219,203.25828 280.24487,203.34828 C 280.48754,203.43829 280.6818,203.59837 280.82764,203.82851 C 280.97347,204.05865 281.04638,204.32184 281.04639,204.61806 C 281.04638,204.99404 280.93587,205.3045 280.71484,205.54945 C 280.49381,205.79441 280.16341,205.94879 279.72363,206.01259 C 279.94238,206.14019 280.12296,206.28033 280.26538,206.433 C 280.40779,206.58567 280.59977,206.85683 280.84131,207.24648 L 281.45313,208.22401 L 280.24316,208.22401 L 279.51172,207.13368 C 279.25195,206.74404 279.07422,206.49851 278.97852,206.39711 C 278.88281,206.29571 278.78141,206.22621 278.67432,206.18861 C 278.56722,206.15102 278.39746,206.13222 278.16504,206.13222 L 277.95996,206.13222 L 277.95996,208.22401 L 276.94824,208.22401 z M 277.95996,205.33241 L 278.7085,205.33241 C 279.19384,205.33242 279.4969,205.31191 279.61768,205.27089 C 279.73844,205.22988 279.833,205.15924 279.90137,205.05898 C 279.96972,204.95872 280.0039,204.83339 280.00391,204.683 C 280.0039,204.51438 279.9589,204.37823 279.8689,204.27455 C 279.77889,204.17088 279.65185,204.10537 279.48779,204.07802 C 279.40576,204.06663 279.15967,204.06093 278.74951,204.06093 L 277.95996,204.06093 L 277.95996,205.33241 z M 286.52197,208.22401 L 285.42139,208.22401 L 284.98389,207.08583 L 282.98096,207.08583 L 282.56738,208.22401 L 281.49414,208.22401 L 283.4458,203.21327 L 284.51563,203.21327 L 286.52197,208.22401 z M 284.65918,206.24159 L 283.96875,204.38222 L 283.29199,206.24159 L 284.65918,206.24159 z M 287.07227,208.22401 L 287.07227,203.21327 L 288.05664,203.21327 L 290.10742,206.55946 L 290.10742,203.21327 L 291.04736,203.21327 L 291.04736,208.22401 L 290.03223,208.22401 L 288.01221,204.95644 L 288.01221,208.22401 L 287.07227,208.22401 z M 292.13428,208.22401 L 292.13428,203.21327 L 293.146,203.21327 L 293.146,205.43837 L 295.18994,203.21327 L 296.55029,203.21327 L 294.66357,205.16493 L 296.65283,208.22401 L 295.34375,208.22401 L 293.96631,205.87245 L 293.146,206.70985 L 293.146,208.22401 L 292.13428,208.22401 z M 297.18604,208.22401 L 297.18604,203.21327 L 300.62109,203.21327 L 300.62109,204.06093 L 298.19775,204.06093 L 298.19775,205.24696 L 300.28955,205.24696 L 300.28955,206.09462 L 298.19775,206.09462 L 298.19775,208.22401 L 297.18604,208.22401 z M 301.45166,203.21327 L 302.46338,203.21327 L 302.46338,205.92714 C 302.46338,206.35781 302.47591,206.63694 302.50098,206.76454 C 302.54427,206.96962 302.64738,207.13425 302.8103,207.25844 C 302.97322,207.38263 303.19596,207.44472 303.47852,207.44472 C 303.76562,207.44472 303.98209,207.38604 304.12793,207.26869 C 304.27376,207.15134 304.36149,207.00722 304.39111,206.83632 C 304.42073,206.66542 304.43554,206.38173 304.43555,205.98524 L 304.43555,203.21327 L 305.44727,203.21327 L 305.44727,205.84511 C 305.44726,206.44667 305.41992,206.87164 305.36523,207.12001 C 305.31054,207.36838 305.20971,207.57802 305.06274,207.74892 C 304.91577,207.91982 304.71923,208.05596 304.47314,208.15736 C 304.22705,208.25876 303.90576,208.30946 303.50928,208.30946 C 303.03076,208.30946 302.66789,208.25421 302.42065,208.14369 C 302.17342,208.03318 301.97803,207.88962 301.83447,207.71303 C 301.69092,207.53643 301.59635,207.35129 301.55078,207.15761 C 301.4847,206.8705 301.45166,206.44667 301.45166,205.88612 L 301.45166,203.21327 z M 306.52051,208.22401 L 306.52051,203.21327 L 308.6499,203.21327 C 309.18538,203.21328 309.57446,203.25828 309.81714,203.34828 C 310.05981,203.43829 310.25406,203.59837 310.3999,203.82851 C 310.54573,204.05865 310.61865,204.32184 310.61865,204.61806 C 310.61865,204.99404 310.50813,205.3045 310.28711,205.54945 C 310.06608,205.79441 309.73567,205.94879 309.2959,206.01259 C 309.51464,206.14019 309.69523,206.28033 309.83765,206.433 C 309.98006,206.58567 310.17203,206.85683 310.41357,207.24648 L 311.02539,208.22401 L 309.81543,208.22401 L 309.08398,207.13368 C 308.82422,206.74404 308.64648,206.49851 308.55078,206.39711 C 308.45508,206.29571 308.35368,206.22621 308.24658,206.18861 C 308.13948,206.15102 307.96972,206.13222 307.7373,206.13222 L 307.53223,206.13222 L 307.53223,208.22401 L 306.52051,208.22401 z M 307.53223,205.33241 L 308.28076,205.33241 C 308.76611,205.33242 309.06917,205.31191 309.18994,205.27089 C 309.31071,205.22988 309.40527,205.15924 309.47363,205.05898 C 309.54199,204.95872 309.57617,204.83339 309.57617,204.683 C 309.57617,204.51438 309.53117,204.37823 309.44116,204.27455 C 309.35115,204.17088 309.22412,204.10537 309.06006,204.07802 C 308.97802,204.06663 308.73193,204.06093 308.32178,204.06093 L 307.53223,204.06093 L 307.53223,205.33241 z M 312.70361,208.22401 L 312.70361,204.06093 L 311.2168,204.06093 L 311.2168,203.21327 L 315.19873,203.21327 L 315.19873,204.06093 L 313.71533,204.06093 L 313.71533,208.22401 L 312.70361,208.22401 z "
         transform="matrix(1.3668273,0,0,1.3810004,-50.052245,46.271735)"
         style="font-size:7px"
         id="flowRoot9070" />
    </g>
  </g>
</svg>
