<?xml version="1.0" encoding="UTF-8"?>
<!DOCTYPE svg PUBLIC "-//W3C//DTD SVG 1.1//EN" "http://www.w3.org/Graphics/SVG/1.1/DTD/svg11.dtd">
<!-- Creator: CorelDRAW -->
<svg xmlns="http://www.w3.org/2000/svg" xml:space="preserve" width="51mm" height="51mm" style="shape-rendering:geometricPrecision; text-rendering:geometricPrecision; image-rendering:optimizeQuality; fill-rule:evenodd; clip-rule:evenodd"
viewBox="0 0 51 51"
 xmlns:xlink="http://www.w3.org/1999/xlink">
 <defs>
  <style type="text/css">
   <![CDATA[
    .fil2 {fill:black}
    .fil1 {fill:#005CA9}
    .fil0 {fill:white}
    .fil3 {fill:#005CA9;fill-rule:nonzero}
    .fil4 {fill:white;fill-rule:nonzero}
   ]]>
  </style>
 </defs>
 <g id="Ebene_x0020_1">
  <metadata id="CorelCorpID_0Corel-Layer"/>
  <circle class="fil0" cx="25.5" cy="25.5" r="25"/>
  <circle class="fil1" cx="25.5" cy="25.5" r="24.04"/>
  <circle class="fil0" cx="25.5" cy="25.5" r="18.63"/>
  <circle class="fil2" cx="25.5" cy="25.5" r="16.9"/>
  <circle class="fil0" cx="25.5" cy="25.5" r="15.725"/>
  <path class="fil2" d="M15.2789 15.8518c0.0045,0.0862 0.0449,0.1654 0.1287,0.2115 3.7808,-1.0589 7.3582,-0.4087 10.8247,0.4376 1.7598,0.1441 3.6674,-0.4261 5.4785,-0.529 1.5569,-0.0037 3.1314,-0.1727 4.5945,0.2403 0.6253,0.5887 0.8294,1.4463 1.1559,2.2297 0.5838,1.6561 1.0459,3.5845 0.5956,5.2418 0.0397,0.2041 0.2866,0.2559 0.3818,0.4245 1.3736,1.8757 1.1029,4.5197 0.8111,6.6076 -0.118,0.5459 -0.1715,1.1047 -0.3687,1.6288 -3.0354,-2.0263 -6.9546,-1.9994 -10.4121,-0.4927 -2.2476,0.4866 -4.116,-0.8572 -6.2949,-0.6581 -1.0328,0.2634 -2.3305,0.2536 -3.0493,1.0415l0.849 3.1493c0.9332,0.3792 2.2379,0.4244 2.7453,1.4972 0.1787,0.663 0.1852,1.272 0.0906,1.8762 -0.1018,0.1816 -0.3417,0.2281 -0.5312,0.2151 -0.64,-0.536 0.1429,-1.5725 -0.6653,-2.0757 -0.4037,-0.2829 -0.8328,-0.374 -1.2761,-0.4124 0.1646,1.0393 0.4302,2.0843 0.7679,3.0526 -0.0417,0.1702 -0.198,0.2629 -0.3519,0.3054 -0.1825,0.0228 -0.3621,-0.0045 -0.5124,-0.1371l-0.9119 -3.4735c-0.7375,-0.2677 -1.632,-0.7666 -2.0165,-1.4642 -0.4449,-1.1344 0.1314,-2.1439 0.8128,-3.0612l-3.7449 -14.1358c-0.3907,-0.0861 -0.9875,-0.1444 -1.1095,-0.6441 -0.1156,-0.4009 -0.0176,-0.7935 0.3078,-1.0438 0.5024,-0.2347 1.2446,-0.454 1.7005,-0.0315z"/>
  <path class="fil0" d="M18.6046 29.8819l-1.3234 -4.9503 -1.6291 -6.1995 -0.0846 -0.3078c1.9207,3.2151 2.9,7.5475 3.0371,11.4576z"/>
  <path class="fil0" d="M18.9442 35.0237c-0.3588,-0.1792 -0.818,-0.4262 -0.8879,-0.8486 -0.0432,-0.4157 0.0956,-0.7912 0.3275,-1.1353l0.5604 1.9839z"/>
  <path class="fil3" d="M26.3042 17.3879c2.7371,-0.0837 5.5851,-0.687 8.2682,-0.5355 0.3404,0.0208 0.6691,0.0441 1.0116,0.0775 1.0653,1.699 1.8227,4.1184 1.5259,6.1819 -2.6909,-0.4486 -5.6957,-0.1384 -8.5284,0.7359 -1.7809,0.1969 -3.3402,-0.6466 -5.067,-0.6849 -1.5377,0.0375 -3.1705,-0.0314 -4.6776,0.5483 -0.6617,-2.3138 -1.4026,-4.5866 -2.8248,-6.3909l-0.3604 -0.316c3.6882,-1.2152 7.2186,-0.2943 10.6525,0.3837z"/>
  <path class="fil4" d="M27.257 24.8488c2.3904,0.1833 4.9633,-1.0022 7.3783,-0.9483 1.1507,0.1502 2.6125,-0.0841 3.3015,1.1523 0.8606,1.926 0.5303,3.9462 0.2972,5.8227 -2.9619,-1.3928 -6.5481,-1.3185 -9.7165,0.0078 -2.4447,0.5621 -4.4679,-1.0006 -6.8955,-0.541 -0.7294,0.0919 -1.4384,0.354 -2.1328,0.5638 0.2506,-1.9797 -0.1579,-4.0808 -0.516,-6.1791 2.8444,-0.8767 5.6639,-0.6025 8.2838,0.1218z"/>
  <path class="fil1" d="M30.9986 26.2767c0.1163,1.1115 0.6074,2.0998 0.7114,3.2133 -0.0559,0.1605 -0.2739,0.1278 -0.3914,0.1009 -0.4498,-0.1368 -0.8348,0.5111 -1.2406,0.0919 -0.307,-0.4262 -0.4547,-1.0578 -0.2767,-1.5537 0.2013,-0.4376 0.9094,-0.5752 0.7135,-1.1353 -0.1245,-0.0628 -0.2894,-0.1432 -0.429,-0.0285 -0.1858,0.1355 0.0074,0.3596 -0.1396,0.5004 -0.1106,0.0715 -0.3506,0.118 -0.3931,-0.0359 -0.0453,-0.4894 -0.0518,-1.0985 0.4487,-1.3455 0.3645,-0.046 0.7367,-0.1183 0.9968,0.1924zm6.3945 -1.3924c0.089,0.3939 0.451,0.909 0.1327,1.2577 -0.4899,0.1077 -0.2409,-0.7259 -0.7695,-0.5605 -0.4552,0.7984 -0.109,2.0018 0.3209,2.7406 0.0693,0.0988 0.1914,0.1499 0.2796,0.2201 0.1992,-0.0016 0.2314,-0.2196 0.2923,-0.3559 -0.0331,-0.1058 -0.0254,-0.1948 0.0326,-0.2805 0.1461,-0.0159 0.2997,0.004 0.3878,0.1363 0.1335,0.6222 0.2397,1.3614 -0.329,1.8333 -0.718,0.1518 -0.9462,-0.6385 -1.2556,-1.0769 -0.5357,-1.2164 -0.8438,-2.8011 -0.3049,-4.0024 0.1665,-0.1695 0.4192,-0.3429 0.6731,-0.2551 0.1914,0.0873 0.4286,0.1531 0.54,0.3433zm-2.3492 -0.2287c0.2477,0.3132 0.442,0.7364 0.3486,1.1532 -0.0698,0.0886 -0.1711,0.1457 -0.2956,0.1449 -0.2437,-0.1644 -0.2093,-0.7568 -0.6208,-0.5646 -0.0552,0.0356 -0.0939,0.0932 -0.1204,0.1478 0.2465,1.3974 2.112,1.9571 1.6765,3.5616 -0.2033,0.3634 -0.6022,0.4908 -1.0124,0.4961 -0.2273,-0.0809 -0.4164,-0.2185 -0.5878,-0.3968 -0.1037,-0.3413 -0.2404,-0.7879 0.0677,-1.0598 0.6393,-0.2367 0.2727,1.0805 0.9161,0.5445 -0.1437,-1.4421 -2.1289,-2.0405 -1.6116,-3.6738 0.24,-0.4327 0.8274,-0.422 1.2397,-0.3531zm-1.757 0.1924c0.2584,0.6224 0.183,1.2601 0.0596,1.8446 0.3882,0.0739 0.6287,0.4135 0.7805,0.7453 0.0683,0.672 -0.0142,1.3357 -0.4682,1.8852 -0.4494,0.1249 -0.9944,0.2681 -1.3846,0.1196 -0.2976,-1.3377 -0.1939,-2.7281 -0.7511,-3.9906 -0.0972,-0.1805 -0.0792,-0.4082 -0.0563,-0.6115 0.5919,0.0963 1.3512,-0.6119 1.8201,0.0074zm-8.3584 1.2882c0.0939,-0.093 0.1972,-0.1379 0.3315,-0.1518 0.2563,0.0996 0.264,0.3971 0.2678,0.6082 -0.3907,0.425 0.6687,1.0038 -0.1286,1.1964 -0.3033,-0.2776 0.1274,-0.947 -0.4796,-0.9287 -0.4278,1.0676 0.6204,1.9726 0.42,3.0584 -0.1568,0.1547 -0.3764,-0.0143 -0.5123,-0.1372 -0.3935,-0.8707 -0.2895,-1.9374 -0.6927,-2.7933 -0.0486,-0.3144 -0.1665,-0.6655 0.1008,-0.8921 0.2669,-0.1011 0.4678,0.4202 0.6931,0.0401zm2.7558 -0.8845c0.2858,0.3803 0.1752,0.9 0.3283,1.3686 0.3089,0.1147 0.6845,-0.1326 0.9736,0.0727 0.2701,1.0687 0.4244,2.2472 0.6995,3.2779 -0.0657,0.1747 -0.2837,0.1421 -0.4203,0.1437 -0.5634,-0.5258 -0.4075,-1.4528 -0.612,-2.1859 0.0155,-0.2397 -0.0575,-0.487 -0.2127,-0.6438 -0.122,-0.0511 -0.1922,0.0996 -0.26,0.2 0.067,0.9213 0.6396,1.9439 0.3327,2.8007 -0.0934,0.031 -0.185,0.0735 -0.3049,0.0968l-0.1723 -0.116 -0.8957 -4.7347c0.0344,-0.1437 0.0356,-0.3307 0.1964,-0.3997 0.1323,-0.0253 0.2736,-0.0032 0.3474,0.1197zm-4.3609 0.4489c0.5732,0.5115 0.6471,1.4688 0.5352,2.1758 -0.1379,0.2511 -0.6282,0.0352 -0.6711,0.3922 0.056,0.2883 0.1046,0.6026 0.387,0.7096 0.3175,-0.1613 -0.0927,-1.0537 0.5241,-0.6377 0.1874,0.3874 0.1038,0.7899 0.025,1.154 -0.1927,0.1621 -0.4764,0.2421 -0.7401,0.2311 -0.5462,-0.118 -0.5046,-0.7364 -0.6965,-1.1479 -0.1681,-0.8646 -0.2473,-1.7214 -0.2359,-2.5583 0.0416,-0.1073 0.0927,-0.2298 0.191,-0.2987 0.2262,-0.0564 0.4662,-0.1029 0.6813,-0.0201zm2.9008 -0.589c0.2093,0.3082 0.2408,0.7258 0.3637,1.1005 0.1828,0.3008 0.6988,0.2629 0.5886,0.7205 0.0151,0.271 -0.3735,0.2592 -0.4392,0.4964 0.0021,0.9091 0.2559,1.8941 0.7992,2.5734 0.0087,0.1726 0.2618,0.3853 0.04,0.5277 -0.2252,-0.0061 -0.48,0.0935 -0.6882,-0.0155 -0.6763,-0.8527 -0.5854,-2.1786 -0.8074,-3.257 -0.2127,-0.1328 -0.5507,-0.2042 -0.4409,-0.5373 0.0731,-0.2012 0.3029,-0.171 0.3759,-0.3722 0.0291,-0.4291 -0.3041,-0.925 -0.0431,-1.312 0.0938,-0.0307 0.209,-0.016 0.2514,0.0755zm-5.9553 -0.0632l0.2404 1.2364c0.1506,0.0707 0.34,0.1458 0.5013,0.0147 0.2036,-0.4257 -0.1123,-0.9625 -0.093,-1.4394 0.1452,-0.2151 0.4277,-0.1081 0.6534,-0.1644l0.0878 0.1326c0.3367,1.6039 0.5804,3.1763 0.8646,4.7654 -0.0992,0.1314 -0.3054,0.0968 -0.4446,0.1487l-0.2441 -0.1642c-0.1633,-0.8405 -0.3605,-1.6618 -0.5454,-2.4855 -0.1355,-0.1854 -0.3812,-0.038 -0.5347,0.0045l-0.1645 0.2437 0.476 2.4488c-0.133,0.213 -0.4033,0.1032 -0.5931,0.1526l-0.2041 -0.4086c-0.2392,-1.4858 -0.723,-2.9497 -0.7679,-4.3984 0.2094,-0.1404 0.5462,-0.3306 0.7679,-0.0869z"/>
  <path class="fil4" d="M23.2753 26.6689c-0.0032,0.1751 0.0294,0.3433 -0.0245,0.516 -0.2413,-0.1523 -0.0743,-0.4465 -0.0995,-0.6413l0.124 0.1253z"/>
  <path class="fil4" d="M32.651 25.4198c0.0743,0.3842 0.2445,0.8748 -0.0951,1.1773 -0.2747,-0.2584 -0.2311,-0.7401 -0.2127,-1.0924 0.0534,-0.1102 0.2164,-0.1044 0.3078,-0.0849z"/>
  <path class="fil4" d="M33.2401 27.3612c0.1513,0.3939 0.204,0.8572 -0.1336,1.172 -0.0935,0.0306 -0.1845,0.0114 -0.2706,-0.0469 -0.0555,-0.4127 -0.307,-0.9373 0.124,-1.2202 0.1058,-0.0331 0.194,0.0372 0.2802,0.0951z"/>
  <path class="fil4" d="M30.8218 28.7659l-0.1645 0.2433c-0.2037,-0.0224 -0.1588,-0.3054 -0.1748,-0.4515 0.0727,-0.1387 0.0617,-0.3238 0.2156,-0.4286 0.249,0.1261 0.0433,0.4155 0.1237,0.6368z"/>
  <polygon class="fil4" points="6.6327,14.6224 5.6135,13.9606 5.1676,14.6472 7.8083,16.3621 8.2541,15.6755 7.172,14.9726 7.8157,13.9814 8.8978,14.6844 9.3436,13.9977 6.7029,12.2829 6.2572,12.9695 7.276,13.6312 "/>
  <polygon class="fil4" points="10.209,9.1948 9.7106,8.7127 8.466,10.0019 10.7311,12.1891 11.9758,10.9002 11.477,10.4187 10.801,11.1187 10.4103,10.7415 11.0516,10.0778 10.5528,9.5961 9.9118,10.2602 9.5335,9.8945 "/>
  <path class="fil0" d="M14.36 7.4347c0.3372,-0.3042 0.3434,-0.7512 0.1131,-1.1194 -0.3563,-0.5703 -0.9136,-0.5719 -1.4413,-0.2416l-1.0377 0.6482 1.6688 2.67 0.6939 -0.4339 -0.6417 -1.0266 0.0074 -0.0045 1.2969 0.6177 0.8641 -0.5402 -1.5235 -0.5697zm-1.3397 -0.6156l0.0674 -0.0417c0.2265,-0.1421 0.5082,-0.2588 0.6895,0.0318 0.1815,0.2903 -0.047,0.4924 -0.2735,0.6336l-0.0674 0.0421 -0.416 -0.6658z"/>
  <polygon class="fil4" points="18.0499,4.4363 18.6818,4.1939 18.4331,3.5469 16.4061,4.3249 16.6541,4.972 17.2857,4.7294 18.1658,7.0224 18.93,6.7288 "/>
  <polygon class="fil4" points="22.1315,3.9407 21.9837,2.7349 21.1714,2.8345 21.5551,5.9598 22.3674,5.8602 22.2098,4.5792 23.383,4.4351 23.5402,5.7161 24.3526,5.6165 23.9689,2.4912 23.1565,2.5908 23.3047,3.7967 "/>
  <path class="fil0" d="M28.6309 5.3565l0.1364 0.5678 0.8663 0.1061 -0.7932 -3.2693 -0.8871 -0.1094 -1.5858 2.9779 0.8621 0.1056 0.282 -0.5163 1.1193 0.1376zm-0.1432 -0.6487l-0.6756 -0.0833 0.4576 -0.9536 0.0085 0.0013 0.2095 1.0356z"/>
  <path class="fil0" d="M35.9187 7.1831l0.0698 0.0458c0.2244,0.1457 0.5845,0.3343 0.3775,0.6531 -0.1889,0.291 -0.5253,0.0572 -0.7281,-0.0747l-0.0879 -0.0567 0.3687 -0.5675zm-0.3385 1.3337c0.4834,0.3143 1.0744,0.4388 1.4337,-0.1143 0.2388,-0.3679 0.2437,-0.7278 -0.1025,-1.0226l0.0045 -0.0074c0.2842,0.0302 0.4862,-0.1122 0.6409,-0.3501 0.3274,-0.5046 0.1307,-0.8912 -0.3388,-1.1961l-0.9805 -0.6368 -1.7149 2.6407 1.0576 0.6866zm1.0027 -2.3562l0.0489 0.0319c0.1857,0.1203 0.3902,0.2731 0.2331,0.5147 -0.1454,0.2241 -0.3552,0.1331 -0.5372,0.0147l-0.0771 -0.0498 0.3323 -0.5115z"/>
  <path class="fil4" d="M41.8671 9.7887c-0.0911,-0.3081 -0.3009,-0.6502 -0.529,-0.8706 -0.4536,-0.4381 -1.0712,-0.4539 -1.5149,0.0057 -0.4238,0.4384 -0.2731,0.7698 -0.0054,1.2315 0.0915,0.1579 0.2678,0.4384 0.1082,0.6038 -0.1539,0.1592 -0.3677,0.0861 -0.5057,-0.0473 -0.2013,-0.1944 -0.2744,-0.4679 -0.2968,-0.7393l-0.7106 0.231c0.0746,0.3857 0.2611,0.7515 0.5465,1.027 0.2286,0.2204 0.5266,0.387 0.8491,0.4079 0.3281,0.0208 0.6054,-0.1584 0.8229,-0.3837 0.354,-0.3666 0.2645,-0.7606 0.0392,-1.1585l-0.107 -0.1899c-0.0701,-0.1318 -0.1799,-0.3367 -0.0522,-0.4687 0.1216,-0.1264 0.327,-0.0502 0.4347,0.0544 0.1446,0.1392 0.2245,0.3327 0.2458,0.527l0.6752 -0.2303z"/>
  <path class="fil4" d="M45.1062 13.9304c-0.0482,-0.2576 -0.1311,-0.4927 -0.2743,-0.7131 -0.2409,-0.3715 -0.6455,-0.6413 -1.0802,-0.7279 -0.4228,-0.0836 -0.858,0.0049 -1.2189,0.2392 -0.3923,0.2548 -0.649,0.6103 -0.7229,1.072 -0.0715,0.4347 0.0159,0.876 0.2547,1.2434 0.1388,0.2139 0.2984,0.3441 0.5164,0.5266l0.823 -0.5348c-0.265,-0.0322 -0.5193,-0.1857 -0.6647,-0.4099 -0.2774,-0.4273 -0.1628,-0.9101 0.254,-1.1804 0.4099,-0.2662 0.9165,-0.1919 1.1891,0.2286 0.1523,0.2343 0.1988,0.5278 0.1004,0.7911l0.8234 -0.5348z"/>
  <path class="fil0" d="M13.4539 43.1706l0.0698 0.0454c0.2241,0.1457 0.5845,0.3348 0.3775,0.6535 -0.1889,0.2907 -0.5253,0.0572 -0.7281,-0.0747l-0.0879 -0.0567 0.3687 -0.5675zm-0.3385 1.3337c0.4834,0.3138 1.0744,0.4388 1.4337,-0.1148 0.2387,-0.3673 0.2437,-0.7278 -0.1025,-1.0225l0.0045 -0.0069c0.2841,0.0302 0.4862,-0.1123 0.6409,-0.3503 0.3274,-0.5045 0.1306,-0.8915 -0.3388,-1.196l-0.9805 -0.6368 -1.7149 2.6407 1.0576 0.6866zm1.0026 -2.3566l0.049 0.0322c0.1857,0.1205 0.3902,0.2732 0.2331,0.5148 -0.1454,0.2241 -0.3551,0.1327 -0.5373,0.0147l-0.077 -0.0502 0.3322 -0.5115z"/>
  <polygon class="fil4" points="19.3814,44.8978 19.6071,44.2422 17.9131,43.6593 16.8881,46.6363 18.5818,47.2196 18.8074,46.5641 17.8874,46.2473 18.0641,45.7342 18.9369,46.0346 19.1627,45.3791 18.2898,45.0786 18.4613,44.5811 "/>
  <path class="fil0" d="M23.5149 46.9911c0.4535,-0.0245 0.7397,-0.3678 0.7923,-0.7989 0.0821,-0.6674 -0.3502,-1.0193 -0.9678,-1.0952l-1.2144 -0.149 -0.3837 3.1252 0.8123 0.0997 0.1478 -1.2018 0.0081 0.0008 0.6193 1.2961 1.0115 0.1245 -0.8254 -1.4014zm-0.654 -1.3218l0.0788 0.0099c0.2654,0.0326 0.5577,0.1191 0.516,0.4588 -0.0417,0.3399 -0.3461,0.353 -0.6114,0.3204l-0.0788 -0.0094 0.0954 -0.7797z"/>
  <polygon class="fil4" points="27.7786,45.1125 26.9663,45.2125 27.35,48.3378 29.1363,48.1181 29.0519,47.4303 28.0778,47.5499 "/>
  <polygon class="fil4" points="31.9652,44.1549 31.1782,44.3806 32.046,47.4074 32.833,47.1817 "/>
  <polygon class="fil4" points="35.9905,45.9579 36.6995,45.5489 35.7349,43.8776 35.7419,43.8736 38.005,44.7949 38.7137,44.386 37.1396,41.6586 36.4306,42.0681 37.3931,43.7352 37.3862,43.7394 35.1251,42.8216 34.4161,43.231 "/>
 </g>
</svg>
