<?xml version="1.0" encoding="utf-8"?>
<!-- Generator: Adobe Illustrator 13.0.0, SVG Export Plug-In . SVG Version: 6.00 Build 14948)  -->
<!DOCTYPE svg PUBLIC "-//W3C//DTD SVG 1.0//EN" "http://www.w3.org/TR/2001/REC-SVG-20010904/DTD/svg10.dtd">
<svg version="1.0" xmlns="http://www.w3.org/2000/svg" xmlns:xlink="http://www.w3.org/1999/xlink" x="0px" y="0px" width="347.9px"
	 height="502.6px" viewBox="0 0 347.9 502.6" enable-background="new 0 0 347.9 502.6" xml:space="preserve">
<g id="Ebene_2">
	<rect fill="#25A659" width="347.9" height="502.6"/>
</g>
<g id="HQFL">
	<polygon points="172.067,33.045 33.852,255.49 172.067,477.933 310.282,255.49 	"/>
	<polygon fill="#FFFFFF" points="172.067,70.372 57.162,255.49 172.067,440.606 286.973,255.49 	"/>
	<polygon points="172.067,90.002 274.902,255.49 172.067,420.976 69.232,255.49 	"/>
	<path fill="#FFFFFF" d="M123.542,329.609h62.226c20.8,0,43.16-17.761,43.294-44.201v-0.242c0-4.51-0.458-8.503-1.231-12.033h31.524
		c6.329-10.185,10.471-16.851,10.964-17.644c-0.493-0.793-4.635-7.459-10.964-17.644h-34.155c1.16-3.622,1.907-7.791,1.907-12.572
		v-0.075c-0.031-13.007-3.952-23.486-11.653-31.151c-12.64-12.579-30.793-12.68-31.559-12.678l-60.352,0v56.476H84.78
		c-6.329,10.185-10.472,16.851-10.964,17.644c0.492,0.793,4.635,7.458,10.964,17.644h38.761V329.609z"/>
	<path fill="#FFFFFF" d="M123.93,336.135c6.499,10.459,12.978,20.885,18.986,30.554h58.302c6.008-9.669,12.487-20.095,18.987-30.554
		H123.93z"/>
	<path fill="#FFFFFF" d="M201.218,144.291h-58.301c-6.009,9.668-12.487,20.095-18.987,30.554h96.275
		C213.705,164.385,207.226,153.959,201.218,144.291z"/>
	<path d="M128.29,186.118v138.742h57.477c17.535,0,38.421-14.866,38.546-39.477c0.093-25.635-15.89-32.494-15.89-32.494
		s13.966-8.084,13.934-27.684c-0.093-39.182-38.452-39.088-38.452-39.088L128.29,186.118z"/>
	<path fill="#FFFFFF" d="M183.253,266.732h-28.149v31.376h27.032c0,0,15.238,0.187,15.238-15.316
		C197.374,266.903,183.253,266.732,183.253,266.732z"/>
	<path d="M183.169,271.48c0.126,0.005,2.659,0.13,5.026,1.587c2.981,1.835,4.43,5.017,4.43,9.725c0,4.501-1.511,7.394-4.753,9.102
		c-2.737,1.441-5.683,1.465-5.712,1.465c0,0-15.852,0-22.307,0c0-5.62,0-16.26,0-21.879
		C166.392,271.48,183.031,271.48,183.169,271.48z"/>
	<path fill="#FFFFFF" d="M180.832,211.551h-25.728v29.639c0,0,19.8,0.093,25.728,0c5.958-0.108,14.401-3.724,14.401-14.959
		C195.233,211.551,180.832,211.551,180.832,211.551z"/>
	<path d="M180.799,216.299c0.052,0.001,2.775,0.066,5.302,1.436c2.99,1.621,4.383,4.32,4.383,8.496
		c0,9.311-7.454,10.17-9.738,10.212c-4.02,0.063-14.663,0.039-20.894,0.018c0-5.408,0-14.736,0-20.161
		C166.157,216.299,180.748,216.299,180.799,216.299z"/>
</g>
</svg>
