<?xml version="1.0" encoding="utf-8"?>
<!-- Generator: Adobe Illustrator 13.0.2, SVG Export Plug-In . SVG Version: 6.00 Build 14948)  -->
<!DOCTYPE svg PUBLIC "-//W3C//DTD SVG 1.0//EN" "http://www.w3.org/TR/2001/REC-SVG-20010904/DTD/svg10.dtd">
<svg version="1.0" id="Ebene_1" xmlns="http://www.w3.org/2000/svg" xmlns:xlink="http://www.w3.org/1999/xlink" x="0px" y="0px"
	 width="510.214px" height="561.689px" viewBox="0 0 510.214 561.689" enable-background="new 0 0 510.214 561.689"
	 xml:space="preserve">
<path fill="#FFFFFF" d="M504.568,350.579L504.568,350.579c-0.39-0.322-15.755-13.65-30.74-36.577
	c-15.024-22.965-29.556-55.252-29.541-94.007c0.053-35.307,11.802-76.515,47.937-122.838l5.301-6.782l-4.609-7.267L454.442,22.44
	l-10.361,6.865v0c-0.825,0.591-31.004,19.664-73.72,19.583c-30.525-0.074-67.594-9.265-107.443-42.377L255.107,0l-7.811,6.51
	c-39.85,33.112-76.918,42.303-107.443,42.377c-42.716,0.081-72.895-18.991-73.72-19.583v0L55.771,22.44L17.299,83.107l-4.609,7.267
	l5.301,6.782c36.135,46.323,47.884,87.532,47.937,122.838c0.015,38.755-14.517,71.042-29.541,94.007
	C21.4,336.929,6.035,350.257,5.645,350.578l0.001,0.001L0,355.37l1.658,7.232c0.145,0.604,3.878,16.761,14.006,38.355
	c10.143,21.57,26.677,48.691,52.91,70.74c17.469,14.683,39.326,27.02,65.988,33.482c46.186,11.2,73.898,21.849,90.026,29.911
	c16.15,8.053,20.581,13.493,20.807,13.827l9.711,12.771l9.711-12.771c0.226-0.334,4.656-5.774,20.807-13.827
	c16.128-8.063,43.841-18.711,90.026-29.911c26.662-6.463,48.52-18.8,65.988-33.482c26.233-22.049,42.768-49.17,52.91-70.74
	c10.128-21.595,13.861-37.752,14.006-38.355l1.658-7.232L504.568,350.579z"/>
<path fill="#00559E" d="M498.238,358.017c0,0-0.221-0.188-0.679-0.596c-6.913-6.131-63.105-58.905-63.039-137.426
	c0.011-37.557,12.733-81.15,50.01-128.854l1.057-1.354l-0.918-1.449L451.53,36.085l-2.069,1.371c-0.002,0.002-0.45,0.299-1.402,0.87
	c-6.665,4.006-36.491,20.341-77.697,20.331c-32.554-0.017-72.231-10.109-113.694-44.644l-1.56-1.299l0,0l0,0l-1.56,1.299
	c-41.463,34.535-81.141,44.627-113.694,44.644c-41.206,0.01-71.032-16.324-77.697-20.331c-0.952-0.571-1.4-0.868-1.402-0.87
	l-2.069-1.371L25.545,88.338l-0.918,1.449l1.057,1.354c37.276,47.704,49.999,91.297,50.01,128.854
	c0.066,78.521-56.126,131.295-63.039,137.426c-0.458,0.407-0.679,0.596-0.679,0.596l-1.129,0.957l0.331,1.443
	c0.04,0.161,6.372,27.746,25.207,58.46c18.814,30.691,50.279,64.622,100.48,76.813c93.404,22.628,113.38,43.383,116.302,47.317
	l1.939,2.549l0-0.001l0,0.001l1.939-2.549c2.922-3.935,22.897-24.689,116.302-47.317c50.201-12.19,81.666-46.121,100.48-76.813
	c18.835-30.714,25.167-58.299,25.207-58.46l0.331-1.443L498.238,358.017z"/>
<path fill="#FFFFFF" d="M429.65,219.995c-0.011-38.316,12.952-82.624,49.987-130.498L464.08,64.964
	c-17.453,20.12-333.325,384.253-358.1,414.129c9.688,4.949,20.331,9.021,32.034,11.863c84.079,20.428,109.622,39.237,117.094,46.896
	c7.471-7.659,33.015-26.469,117.092-46.896c42.499-10.325,71.124-36.71,89.992-63.283c18.852-26.56,27.832-53.256,30.857-63.726
	c0.399-1.378,0.694-2.465,0.896-3.237C485.237,352.826,429.727,299.689,429.65,219.995z"/>
<polyline fill="#FFFFFF" points="115.375,370.175 139.55,341.435 145.438,346.369 136.575,356.949 166.167,381.798 159.757,389.428 
	130.166,364.579 121.289,375.16 115.375,370.175 "/>
<path fill="#FFFFFF" d="M168.952,326.963c-3.828-2.722-7.21-2.289-10.313,1.425c-2.34,2.771-3.281,6.866-0.178,9.461
	c3.853,3.23,7.159,0.152,10.466-2.264c5.913-4.272,14.141-10.937,21.25-4.96c8.8,7.376,5.417,17.626-0.992,25.256
	c-6.791,8.088-14.764,11.217-23.513,3.459l6.511-7.782c3.701,3.611,8.253,3.561,11.585-0.407c2.556-3.052,5.023-7.885,1.234-11.063
	c-4.171-3.484-8.737,1.322-12.068,3.713c-5.417,3.917-13.353,8.826-19.66,3.535c-8.101-6.815-5.417-17.295,0.674-24.594
	c5.786-6.867,14.014-9.08,21.148-3.129L168.952,326.963"/>
<path fill="#FFFFFF" d="M206.975,306.743l-5.914-4.959l12.247-14.549l17.727,14.904c-1.348,3.307-3.04,6.333-5.1,9.283
	c-1.297,1.856-2.582,3.765-6.511,8.47c-5.914,7.02-18.389,12.996-32.479,1.145c-14.116-11.853-10.415-25.18-4.501-32.225
	c8.622-10.25,17.053-14.014,25.548-6.943l-6.803,8.113c-4.527-3.79-8.533-2.137-12.03,2.035c-5.672,6.739-3.434,14.166,4.591,20.881
	c8.012,6.714,15.705,7.655,21.352,0.915c2.582-3.052,3.878-5.392,5.15-7.731l-7.439-6.282L206.975,306.743"/>
<path fill="#FFFFFF" d="M221.586,256.792c1.272-4.12,2.009-8.469,2.213-12.717l5.786-6.918l34.03,28.613l-6.193,7.376
	l-26.642-22.382c-0.343,3.993-1.145,7.91-2.391,11.725L221.586,256.792"/>
<path fill="#FFFFFF" d="M257.918,235.885c-4.502,3.179-8.94,3.764-13.314,0.076c-5.595-4.705-3.612-13.836,1.017-19.355
	c4.591-5.443,12.374-9.639,18.809-4.248c3.917,3.307,4.604,9.08,2.06,13.226l-0.051-0.051l0.102,0.102
	c4.578-3.459,10.301-3.713,14.727,0.025c6.282,5.291,4.883,14.726-0.152,20.754c-5.138,6.155-13.557,9.665-20.5,3.841
	c-4.463-3.764-4.756-9.614-2.594-14.294L257.918,235.885 M259.877,227.975c2.061-2.441,2.061-5.977-0.687-8.291
	c-2.76-2.289-6.295-1.755-8.953,1.399c-2.06,2.441-2.06,6.129,0.7,8.444C253.696,231.867,257.219,231.129,259.877,227.975z
	 M276.281,242.167c2.264-2.671,1.729-6.664-1.373-9.232c-3.077-2.62-6.918-2.671-9.461,0.407c-2.238,2.62-2.086,6.638,1.221,9.411
	C269.72,245.295,273.535,245.423,276.281,242.167z"/>
<path fill="#FFFFFF" d="M291.872,215.106c2.417,1.551,5.367,2.085,7.249-0.127c4.502-5.366-2.492-11.216-6.588-14.243
	c0.025,3.383-1.067,5.57-3.433,8.418c-4.731,5.621-13.379,6.13-18.771,1.603c-6.994-5.85-7.172-15.057-1.424-21.898
	c7.935-9.436,16.888-6.74,25.434,0.407c9.182,7.681,19.736,17.854,9.766,29.757c-5.29,6.308-11.267,9.309-18.516,3.561
	L291.872,215.106 M286.022,202.821c2.671-3.205,1.068-6.638-2.085-9.309c-3.154-2.62-7.249-3.942-9.92-0.763
	c-2.976,3.536-0.94,7.325,2.213,9.97C279.334,205.365,283.047,206.357,286.022,202.821z"/>
<path fill="#FFFFFF" d="M315.652,186.798c2.442,1.5,5.393,2.085,7.249-0.127c4.502-5.366-2.467-11.216-6.562-14.243
	c0,3.357-1.068,5.57-3.484,8.418c-4.705,5.596-13.327,6.13-18.771,1.577c-6.969-5.85-7.172-15.057-1.398-21.873
	c7.909-9.461,16.913-6.766,25.459,0.407c9.156,7.681,19.736,17.854,9.767,29.757c-5.29,6.257-11.293,9.284-18.516,3.561
	L315.652,186.798 M309.803,174.514c2.671-3.205,1.068-6.664-2.085-9.309c-3.154-2.645-7.224-3.993-9.919-0.789
	c-2.977,3.561-0.941,7.325,2.212,9.996C303.14,177.032,306.827,178.049,309.803,174.514z"/>
<polyline fill="#00559E" points="212.939,445.916 177.446,416.082 181.249,411.556 196.585,424.45 207.026,412.013 191.689,399.144 
	195.492,394.616 230.984,424.425 227.182,428.927 210.955,415.319 200.515,427.757 216.741,441.389 212.939,445.916 "/>
<path fill="#00559E" d="M224.944,407.181c-7.287-6.13-12.577-12.005-5.367-20.602c7.249-8.597,13.938-4.399,21.199,1.729
	c10.962,9.182,9.042,14.676,4.616,19.94C240.992,413.514,235.88,416.388,224.944,407.181 M235.524,391.056
	c-6.804-5.672-10.059-4.807-12.641-1.704c-2.594,3.103-2.912,6.46,3.878,12.157c8.05,6.766,11.827,8.164,15.349,3.993
	C245.621,401.331,243.561,397.847,235.524,391.056z"/>
<path fill="#00559E" d="M233.985,370.429l-4.819-4.044c-4.998-4.196-3.027-8.57,0-12.183c0.699-0.813,1.144-1.271,1.742-1.78
	l2.925,2.441c-3.917,4.019-2.722,6.282-0.687,7.961l4.222,3.586l4.222-5.035l3.04,2.568l-4.209,5.011l21.797,18.286l-3.383,4.019
	l-21.809-18.261l-3.192,3.814l-3.052-2.543L233.985,370.429"/>
<path fill="#00559E" d="M245.469,356.771l-4.82-4.069c-5.023-4.197-3.026-8.571-0.025-12.157c0.7-0.84,1.17-1.272,1.768-1.806
	l2.899,2.441c-3.878,4.044-2.683,6.308-0.661,8.012l4.222,3.535l4.222-5.036l3.052,2.594l-4.222,4.985l21.784,18.287l-3.357,4.044
	l-21.81-18.287l-3.23,3.841l-3.052-2.569L245.469,356.771"/>
<path fill="#00559E" d="M273.356,351.404c6.943,5.825,9.894,5.112,12.488,1.984c2.34-2.772,1.322-6.054-1.068-8.317l3.713-4.399
	c5.469,4.654,5.138,10.147,0.764,15.361c-4.426,5.266-9.513,8.14-20.475-1.067c-7.273-6.13-12.577-12.005-5.341-20.602
	c5.926-7.07,11.318-5.596,19.533,1.297l2.111,1.78L273.356,351.404 M278.443,339.146c-7.248-6.053-9.817-4.781-12.284-1.831
	c-2.137,2.543-2.696,5.697,4.171,11.521L278.443,339.146z"/>
<path fill="#00559E" d="M313.109,326.606l-17.219-14.42c-2.619-2.238-5.595-3.129-8.494,0.305
	c-3.688,4.426-0.306,8.394,3.077,11.216l14.7,12.361l-3.356,4.019l-19.687-16.507c-1.729-1.449-3.535-2.798-5.341-4.095l3.561-4.298
	l3.205,2.695l0.178-0.178c-1.5-3.942-0.813-6.536,1.856-9.741c4.477-5.315,8.801-3.968,13.684,0.178l17.219,14.447L313.109,326.606"
	/>
<path fill="#00559E" d="M333.762,302.013l-16.837-14.116c-3.053-2.543-6.028-3.382-8.902,0.052
	c-3.383,4.044-1.017,7.782,3.154,11.317l14.599,12.259l-3.357,4.044l-35.505-29.833l3.383-4.019l13.861,11.623l0.152-0.178
	c-1.526-4.069-0.737-6.588,1.983-9.843c3.561-4.223,7.631-4.808,13.251-0.103l17.601,14.803L333.762,302.013"/>
<path fill="#00559E" d="M335.287,277.647c6.918,5.825,9.869,5.138,12.514,1.984c2.314-2.772,1.297-6.053-1.094-8.316l3.714-4.4
	c5.468,4.654,5.138,10.148,0.763,15.362c-4.426,5.265-9.512,8.139-20.474-1.068c-7.274-6.129-12.564-12.005-5.342-20.602
	c5.952-7.07,11.293-5.595,19.508,1.297l2.137,1.78L335.287,277.647 M340.374,265.388c-7.248-6.053-9.817-4.782-12.31-1.831
	c-2.137,2.543-2.671,5.697,4.171,11.521L340.374,265.388z"/>
<path fill="#00559E" d="M327.963,236.852l3.789-4.501l4.324,3.611l-3.79,4.553L327.963,236.852 M367.028,262.413l-3.356,4.019
	l-24.874-20.856l3.407-4.044L367.028,262.413z"/>
<path fill="#00559E" d="M383.153,243.21l-17.243-14.421c-2.493-2.111-5.393-3.357-8.114-0.127c-1.017,1.221-1.703,3.51-1.246,4.883
	c0.61,1.78,1.934,3.205,2.849,3.993l16.735,14.039l-3.383,4.019L353.04,239.09c-1.704-1.424-3.51-2.772-5.341-4.095l3.586-4.248
	l3.104,2.594l0.076-0.102c-1.679-3.408-0.814-6.308,1.628-9.232c1.882-2.264,5.01-4.069,8.062-3.078
	c-1.5-3.637-0.178-6.333,1.756-8.597c2.187-2.62,6.281-6.308,12.157-1.399l18.871,15.871l-3.383,4.044l-17.218-14.472
	c-2.519-2.111-5.393-3.357-8.14-0.102c-1.271,1.526-1.602,2.009-1.627,3.84c0,2.009,2.289,4.273,3.229,5.036l16.71,14.039
	L383.153,243.21"/>
</svg>
