<?xml version="1.0" encoding="UTF-8"?><svg xmlns="http://www.w3.org/2000/svg" height="638px" width="567px">

 <path fill="#ed1c23" d="m48.843,454.49c0-75.13,60.927-136.04,136.04-136.04,75.08,0,136.01,60.91,136.01,136.04,0,75.14-60.93,136.02-136.01,136.02-75.11,0-136.04-60.88-136.04-136.02zm-31.127,0.02c0-92.26,74.812-167.04,166.97-167.04,92.28,0,167.08,74.78,167.08,167.04,0,92.25-74.8,167-167.08,167-92.162,0-166.97-74.75-166.97-167z"/>

 <path fill="#FFF" d="M37.937,454.51c0-81.12,65.813-146.89,146.94-146.89,81.1,0,146.9,65.77,146.9,146.89,0,81.1-65.8,146.82-146.9,146.82-81.13,0-146.94-65.72-146.94-146.82z" fill-rule="evenodd"/>

 <path d="M48.843,454.49c0-75.13,60.927-136.04,136.04-136.04,75.08,0,136.01,60.91,136.01,136.04,0,75.14-60.93,136.02-136.01,136.02-75.11,0-136.04-60.88-136.04-136.02z" fill-rule="evenodd" fill="#ed1c23"/>

 <path d="m327.78,366.7c-2.81-2.88-5.32-6.83-5.32-6.83-30.11-43.64-80.54-72.37-137.65-72.37l-0.29,0.37c-2.22,0.45-4.51,1.84-7.66,3.62-5.09,2.66-10.43,2.84-15.69,3.11-4.2-0.27-1.28-5.49-3.84-4.61-2.97,0.82-9.52,3.05-12.33,4.84-0.27,6.46-19.83,13.21-30.38,8.12,1.24-15.49,26.95-28.91,63.73-34.46,22.93-13.67,26.18-17.23,41.27-30.61,6.77-6.01,9.89-8.48,12.09-8.94,0.98-0.41,0.29-1.01-0.5-1.04-2.06-0.89-3.05-2.3-3.81-3.95-1.19-2.54-0.4-5.56-2.1-7.15-2.03-1.38-4.5-2.39-4.75-5.74-0.12-1.69-0.24-4.39-2.7-4.59-3.42,0.1-4.64,0.85-5.02-6.19-0.18-3.06-0.08-8.01-1.67-8.14-2.3-0.23-4.56,7.47-7.04,26.39-1.79,13.75-9.99,29.32-12.81,27.36-2.74-2.38-0.44-16.58-4.62-22.92-0.63-1.13,1.35,15.58-11.26,28.48-1.73,1.87-3.22,0.76-3.22-0.19,0.48-3.48,2.16-23.7-1.85-29.89-3.17-5.08-6.59-5.35-11.58-7.52-4.1-1.96-7.5-7.18-8.69-11.17-3.34-12.93,2.54-26.67,3.67-31.08,1.11-4.25,5.63-23.46,4.5-31.48-1.84-6.1-4.64-11.64-0.6-21.07,0.6-0.98,1.08-1.71,0.28-2.53-6.01-4.63-10.05-8.3-11.75-17.459-1-5.402-0.18-7.797-2.24-12.473-0.71-1.875-2.35-2.933-1.78-4.154,1.28-1.289,3.19-1.289,4.95-1.25,9.98,1.658,15.98,7.249,19.75,13.341,1.3-2.56,2.34-4.128,4.17-5.911-0.41-6.18,2.45-10.867,6.56-14.895-0.7-7.656,4.52-12.333,8.22-14.026,0.58-6.551,4.51-11.366,10.72-15.725,4.23-9.693,10.48-12.828,14.14-15.081,3.9-2.142,9.46-4.666,19.34-6.18,4.27-0.538,5.18,2.113,3.19,3.937-6.42,5.182-21.39,21.185-27.49,38.906,1.93-3.427,6.6-9.285,12.4-12.037,3.28-8.537,11.23-12.947,16.05-15.302,2.81-5.146,9-11.607,18-13.532,10.12-8.663,26.6-8.432,28.61-8.382,3.36,0.166,7.54,0.141,8.22,3.185,1.17,4.41-49,30.221-56.69,82.278-0.27,2.33,12.32-11.861,25.48-9.719,0.74,0.328,1.3,0.866,1.65,1.618,6.13,13.231,0.31,25.391,1.79,26.291,26.03,15.31,31.68,34.66,42.88,45.62,15.78,15.03,34.23,14.46,49.68,25.6,14.69,10.36,31.5,45.24,40.05,52.44,37,26.34,68.16,49.43,92.89,88.85,3.28,5.14,5.34,8.21,11.68,8.8,13.78-0.35,25.14-16.68,34.34-31.52,0.51-0.78,1.16-1.01,1.72-0.56,1.09,0.82,0.49,3.03,1.63,3.17,3.01,0.42,5.56-8.58,8.63-10.55,1.22-0.87,3.04-0.13,2.63,1.43-0.9,3.42-3.05,7.42-3.19,10.04,0,0.65,0.56,0.5,0.89,0.09,0.57-0.68,1.35-0.92,1.97-0.8,1.3,0.29,1.18,1.94,0.81,2.76-1.14,2.11-2.12,4.27-2.26,6.75-0.05,2.1,1.62,0.59,2.63,1.18,1.42,0.64,1.13,2.33,0.36,4.36-3.84,8.51-15.64,39.69-43.68,35.65-3.58-0.63-5.42-3.24-4.33,0.78,7.16,24.15-6.96,76.59-0.97,101.56,1.72,7.14,9.83,12.92,12.32,16.65,1.46,1.41,3.16,4.38,3.53,7.69,1.88,21.3-3.53,23.33,6.33,63.01,0.83,3.26,0.73,5.65-0.97,7.56-1.76,2.01-3.07,1.13-3.61,3.02-1.28,12.79-6.55,22.9-14.08,25.63-10.4,3.62-17.19-1.28-15.68-10.05,2.95-15.85,10.55-18.88,13.2-35,2-13.67-6.26-27.7-9.08-32.46-2.6-4.38-9.21-16.3-17.39-23.86-1.1-1.34-1.98-1.01-2.36,0.12-3.12,9.85,0.15,30.07,1.55,35.29,2.31,8.39,4.95,18.69,4.45,25.52-0.44,6.71-3.86,10.8-7.04,13.9-4.87,4.72-1.76,12.6-10.9,16.41-6.71,2.79-11.64,1.58-13.91,0.41-2.1-1.34-3.11-1.92-3.34-4.5-0.01-3.07,0.31-7.46,3.32-11.22,4.89-6.11,11.39-14.76,12.52-31.02,2.13-29.49-24.09-63.06-25.75-63.44-1.68-0.38-1.09,1.1-2.43,0.71-2.6-2.12-5.7-10.06-8.49-13.03-1.49-2.08-5.25-1.17-5.84-4.14-0.33-2.27-1.25-4.57-3.1-5.54-1.21-0.72-2.09,0.51-3.19-0.09-3.21-2.51-3.34-11.53-4.38-12.1-1.15-0.5-2.22,0.41-3.03,0-2.35-1.01-1.79-8.57-3.66-13.93-0.86-2.8-3.72-2.72-4.52-6.1-1.25-6.13-1.09-14.1-7.67-17.13-6.75-2.94-11.06,1.1-14.27-3.77-1.7-2.09-1.41-5.53-5.78-5.99-2.32-1.16-3.25-3.99-5.34-3.36-1.14,0.33-0.19,2.52-2.53,4-3.13,0.22-6.28-8.25-10.62-7.89-1.44,0.55-2,2.2-3.65,2.3-1.87,0.09-2.02-9.48-8.14-11.79-1.1-0.4-1.91,1.62-2.85,0.27,0,0-2.52-1.91-5.43-4.98zm-156.5,4.95,9.61-14.29,3.99,50.82,4.12-50.82,9.59,14.29,11.06-50.92,6.54-30.09,17.64,81.01,9.62-14.29,16.67,210.08v0.38c-21.55,14.34-47.42,22.69-75.24,22.69-27.79,0-53.63-8.33-75.16-22.63v-0.44l16.72-210.08,9.62,14.29,17.61-81.01,17.61,81.01zm88.84,195.79zm-150.4,0z"/>

 <path fill="#FFF" d="m537.48,334.9c0.86,2.28-1.56,5.17-4.07,7.96-2.49,2.9-13.2,10.46-22.13,10.04-2.48-0.37-5.15-3.07-4.31-6.37,0.86-2.79,9.47-3.53,16.11-5.82,4.82-1.64,7.11-2.66,10.93-5.59,2.41-1.82,2.97-0.73,3.47-0.22zm-357.23-258.3c2.62-3.301,7.94-4.804,7.7-5.861-0.45-0.954-2.43-0.088-3.91,0-0.61,0.101-1.45-0.051-1.36-0.788,2.49-8.689,10.98-10.256,13.56-13.008,0.3-0.535,0-0.535-0.67-0.907-1.35-0.061-3.49,1.416-3.49,0.127,1.01-8.661,11.56-12.843,13.55-13.514,0.52-0.449,0.05-1.059-0.6-1.163-0.91,0.104-1.63,0.65-1.76-0.445,1.03-4.305,6.76-7.746,10.46-9.581,3.77-1.553,11.24-3.846,11.24-2.701,0,0.458-5.86,3.301-7.8,6.194-1.61,2.379-3.07,3.936-3.2,7.696-5.99,2.939-8.94,9.577-9.35,15.897-4.24,2.192-7.52,9.899-6.1,13.074-4.91,4.752-7.32,11.632-7.05,18.512-10.6,13.869-7.46,19.159,4.23,23.449,1.72,0.55,3.37,0.65,3.7-0.17,0.4-0.83-1.01-1.34-1.53-2.53-6.36-14.176,1.66-21.262,12.84-26.025,0.88-0.419,0.22-1.416-1.09-1.387-3.02-0.029-5.74,0.737-6.12-0.217-1.63-4.64,10.38-14.218,16.29-16.042,2.53-0.74,1.46-2.001,0.43-1.835-1.6-0.141-4.03,0.777-4.82-1.285,1.5-5.226,15.9-12.142,18.02-13.377,1.31-0.831,1.85-2.308-4.5-1.008-0.62,0.091-1.26,0.091-0.98-0.776,1.21-3.774,14.67-9.032,21.53-11.416,1.08-0.499,1.39-2.193-1.85-1.557-1.16,0.181-3.3,0.957-3.72,0.09,0.42-5.095,15.31-9.032,20.62-10.18,1.2-0.405,1.42-1.094,0.38-1.604-1.69-0.498-4.36,0.827-3.34-0.957,4.01-2.521,14.6-2.56,18.28-1.971,1.03,0.187,1.26,0.418,1.36,0.635-1.13,2.676-18.97,7.888-21.17,18.599-5.34,2.218-10.56,7.302-11.18,11.658-2.81,1.516-8.43,6.143-8.76,12.514-3.07,2.293-11.11,9.426-8.43,18.104-4.3,4.023-7.62,8.151-7.46,19.467,0.07,3.9-4.99,10.22-10.23,11.68-1.46,0.6-0.88,1.79,0.18,2.07,8.75,2.57,16.89-2.17,20.07-5.18,10.1-9.63,16.83-13.093,21.37-13.667,0.83-0.217,0.83,0.383,0.96,0.841,0.65,2.526,2.22,8.646,0.03,17.266-2.87,10.77-11.11,15.77-13.46,18.7-0.41,0.42,1.16,5,0.33,7.34-0.95,2.98,0.12,4.81,1.2,5.27,2.99,1.1,5.11-10.04,6.89-9.76,1.44,0.08,1.2,2.51,2.92,3.39,0.91,0.32,2.24,0.04,2.4-0.97,0.21-3.12,1.37-10.72,2.12-11.54,0.55-0.68,2.25,2.75,2.35,4.86,0.13,8.66-4.75,16.02-1.89,22,0.63,1.27,2.07,1.17,3.07,0.23,2.61-2.8,4.4-12.99,10.22-14.26,7.84-1.74,15.59,19.75,10.06,25.48-2.68,2.28-6.03,0.28-9.37,2.12-3.58,2.09-3.26,10.06-5.72,13.38-1.44,1.46-3.18,1.69-6.54,1.97-7.11,0.54-4.94,20.84-3.84,24.46,0.7,2.15,2.21,1.75,3.22,1.01,1.02-0.87,1.8-5.05,2-8.95,0.29-1.22,2.44-1.73,3.99-3.23,1.68-1.3,0.8-2.71,1.8-3.99,1.46-1.61,2.89-0.19,4.06-1.99,3.07-2.55,0.87-6.55,3.36-8.23,3.63-2.39,6.88-1.2,10.09-4.72,1.98-2.2,2.23-6.83,4.99-7.62,14.72-0.36,29.36,16.6,31.87,21.64,7.28,15.06-4.37,37.8,3.59,42.16,10.03,5.83,7.86,17.14,6.76,19.98-2.17,5.78-18.2,13.11-20.28,26.49-1.03,12.84,5.67,10.18,6.15,8.57,0.51-1.6,0.97-3.71,1.75-5.31,0.63-1.42,2.59-0.79,2.82,0.59,0.38,1.19,3.13,4.63,7.2-2.94,2.58-4.8,9.5-10.99,14.67-14.56,5.11-3.62,6.34-14.94,7.22-17.52,0.67-2.24,2.54-2.24,2.82-4.62,0.18-2.49-4.47-10.68-1.7-16.55,1.3-1.95,4.41-3.35,6.72-0.64,2.45,2.8-1.5,12.01,2.9,12.23,3.76,0.11,4.17-4.3,7.44-4.02,3.31,0.64-2.67,12.79,0.61,14.66,2.01,0.83,4.52-0.14,5.55,1.87,0.93,3.35-5.07,9.46,0.11,9.46,54.82-0.97,74.83,42.16,71.31,50.04-1.65,2.98-8.25-1.48-9.2,1.56-5.01,16.87,6.3,29.64,9.58,31.85,0.97,0.55,2.68-0.23,2.56-2.35-0.55-4.81-3.21-7.38-2.69-12.14,0.93-8.38,19.66-3.21,20.6,3.17,0.37,2.38,0.5,4.35,2.61,6.36,2.66,2.52,9.06-0.32,9.68,5.26,0.81,10.83-12.7,11.46-22.05,18.17-4.46,3.43-3.44,5.81,0.32,7.04,4.51,1.2,11.69-0.08,15.32,5.24,5.16,7.38-1.61,22.82-2.01,29.32-0.38,6.61,11.46,25.9,11.7,35.75,0.84,4.91-2.55,7.57-6.72,3.53-4.02-4.22-8.24-10.72-11.37-15.6-0.91-1.53-3.29-1.63-3.24,1.53-0.05,8.52,40.34,61.09,41.36,69.71,0.93,4.53-1.6,8.38-0.52,12.78,0.35,1.29,2.01,0.55,2.13,1.59,0.23,2.91-2.73,7.34,1.48,9.45,2.11,5.78,0,8.19,1.1,12.97,0.55,4.76,2.8,11.38,3.31,16.18-1.13,13.57-6.33,18.86-10.47,20.87-3.56,1.78-5.03-1.43-4.72-4.19,0.95-8.21,10.04-22.76,6.41-39.15-9.32-42.19-54.46-72.13-62-88.16-2.42-6.04-11.08-6.72-11.57-13.82-0.86-2.29-3.14-1.62-5.07-3.72-1.64-1.83-1.59-7.38-3.33-11.43-0.51-1.27-2.09-0.63-3.26-1.86-6.42-8.45-5.05-49.69-10.77-55.32-4.21-2.35-7.5,4.21-12.75,4.75-4.02,0.43-10.66-9.57-13.1-7.04-1.97,1.96-1.12,7.04-0.96,7.83,0.2,0.71,1.2,4.22-0.16,4.22-1.22,0.05-3.01-2.47-8.09-4.55-3.39-1.23-6.61,0-8.18-1-3.46-3.76,0.12-11.63-5.71-13.88-1.63-0.63-1.92-4.8-2.76-6.47-0.8-1.18-2.47-1.1-3.22-2.01-1.59-2.38-2.69-5.32-3.41-8.66-0.58-2.3-5.91,0.56-6.32-3.08-0.52-2.42-3.36-3.19-5.56-3.58-2.69-0.31-1.57-6.21-3.89-7.19-1-0.45-1.37,0.7-2.42,0.16-1.08-1.35-0.88-2.62-2.24-3.59-1.15-0.78-2.28,0.55-3.13-0.41-3.4-4.13-0.69-11.06-2.46-13.11-1.16-1.27-3.18,0.14-4.95-1.38-1.72-1.32-2-3.49-3.03-3.79-3.02-0.05-4.08-0.6-5.31-2.12-5.51-7.69-4.88-16.55-6.77-19.69-1.23-2.08-3.08-3.37-4.47,0.53-2.75,6.7-2.46,31.67-10.49,35.06-6.16,3.03-11.67-7.6-14.71-9.49-1.35-0.73-1.61,1.53-2.58,1.62-2.8-1.1-2.19-4.45-4.44-5.77-2.22-0.97-1.28,2.14-2.55,1.87-2.19-2.01-2.19-7.41-4.13-8.37-1.58-0.61-2.49,1.22-3.4,0.45-3.17-2.75-0.95-8.9-4.78-10.83-1.65-0.54-1.4,2.25-3.1,1.46-1.65-0.6-1.36-9.3-6.45-8.46-0.75,0.08-0.51-1.1-1.03-1.56-1.51-0.19-2.55,1.91-4.13,0.56-2.14-2.86-3.79-4.23-5.17-5.29-2.15-1.82-5.33,0.47-7.97-1.51-9.3-4.07-30.6,12.2-40.21,21.73-3.5-3.26-8.23,0.18-12.2,0.59-1.43,0.32-5.91,0.13-2.4-4.72,8.72-9.21,15.08-8.75,31.5-20.49,11.99-8.79,22.75-17.36,26.62-19.88,3.2-1.66,8.27-3.02,12.54,2.57,6,7.83,19.39,20.98,25.1,23.54,11.75,5.1,12.33-3.9,13.76-7.02,1.26-3.14,2.04-0.53,1.96,2.45-0.02,1.96,0.7,4.72,2.31,4.98,3.21,0.38,3.25-2.05,3.71-3.61,3.67-14.43,17.87-31.79,23.48-28.23,4.11,2.61,6.53,2.61,7.5-2.34,1.08-6.37-3.83-12.23-5.16-18.94-1.39-7.77-0.53-18-3.5-19.41-1.74-0.74-4.12,0.94-5.46,2.83-1.78,2.38-1.78,4.92-2.38,7.79-0.3,1.61-6.76,3.36-7.5,11.74-0.08,1.51-2.53-1.5-4.28,0-3.61,2.74-2.96,16.36-4.12,17.13-1.33,0.15-2.97-1.36-3.52,0.6,0.3,2.2-0.92,7.52-1.98,7.93-0.88,0.27-1.82-0.82-3.07-0.09-3.13,2.61-1.86,6.23-4.84,9.68-1.84,2.24-3.09,0.68-3.3-1.3-0.44-3.37-3.13-8.42-5.48-10.81-6.92-7.15-2.65-19.06-12.42-24.02-2.95-1.45-3.1-2.88-3.43-5.53-0.13-2.89-1.79-4.9-3.3-5.29-2.69-0.77-3.15-2.23-3.25-4.11,0.24-5.1-3.55-5.32-5.57-5.73-4.78-0.46-4.93-1.38-3.44-13.29,0.45-2.88,0.47-6.2-0.46-8.9-2.49-3.67-7.96-1.32-7.21-7.32,0.58-3.95,7.63-9.09,10.65-12.33,1.84-2.05,3-7.38-3.3-6.1-14.32,3.81-25.74,29.18-28.42,34.05-10.37,18.98-19.36,26.54-27.79,29.47-3.93,1.37-17.58,2.66-20.37-10.72-1.44-7.02,0.31-13.62,3.48-24.61,13.83-48.09-1.62-38.91,5.95-54.91,4.87-5.46,11.79-4.71,18.79-5.56,1.55-0.2,0.99-2.23,0.63-2.83-0.29-0.55-1.91-1.24-4.07-1.64-2.15-0.36-6.75-4.45-7.15-8.84-0.4-4.819,2.7-7.802,4.77-9.904,2.93-2.892,5.04-3.21,5.08-3.846-0.18-2.575-5.58,1.044-6.05,0-1.15-3.987,2.16-7.656,4.36-10.231zm-14.93,25.021c-0.19,1.75-0.19,4.45,2.13,10.04-2.32,0.33-3.74,2.37-5.77,1.24-6.37-3.48-9.93-9.96-12-16.503-1.33-3.756-1.21-8.231-3.31-11.632,11.01,0.726,19.07,15.565,18.95,16.855zm295.94,400.6c1.61,0.05,1.38-0.51,2.8,0,1.26,0.05,1.22,5.45,1.04,8.24-0.3,1.74-0.71,4.68,1.12,6.02,1.65,1.4-2.16,6.59,0.59,9.1,1.52,2.11-1.71,7.64,0.76,10.68,1.21,0,2.12,0.36,2.77,1.35-1.05,6.4,1.79,16.49,0.8,19.41-2.81,4.4-4.92,3.95-7.32,11.19-3.59,7.01-13.74,2.64-11.75-3.01,7.18-12.16,9.82-25.69,10.2-31.6,1.2-15.34-6.89-39.72-7.78-43.13-0.21-3.07,0.47-4.9,2.88-2.15,3.58,5.59,2.29,13.57,3.89,13.9zm-294.07-225.35c-3.4,2.53-5.68,5.73-7.56,9.22-4.07,0.64-10.65,3.39-15.35,5.5-1.73,0.91-8.33,1.42-14.3,2.11-0.91-0.09-1.14-0.65-1.14-1.38-0.48-4.54,27.58-15.99,38.35-17.1,0.98,0,1.57,0.48,0,1.65z"/>

 <path fill="#FFF" d="m168.17,503.09c-0.26,2.6-2.09,5.11-4.1,5.87-1.91,0.45-3.29-1.29-3.11-3.9,0.12-2.67,1.96-5.18,3.93-5.58,2.03-0.79,3.5,1.01,3.28,3.61zm10.43-3.02c-0.17,2.65-1.98,5.17-4,5.85-2.01,0.64-3.32-1.19-3.14-3.7,0.26-2.61,1.95-5.13,3.97-5.76,1.96-0.67,3.44,1.04,3.17,3.61zm6.88,27.49c-1.14,13.83-9.93,24.52-19.92,27.23-10,2.83-17.43-3.36-16.26-17.17,1.11-13.5,9.99-24.52,19.96-27.33,9.88-2.81,17.31,3.79,16.22,17.27zm-24.25,6.96c-0.44,4.99,1.87,7.61,5.4,6.7,3.58-1.01,6.42-5.14,6.84-9.94,0.38-4.74-1.66-7.9-5.4-6.79-3.71,1.05-6.42,5.56-6.84,10.03zm30.21-29.74,11.86-3.21-2.44,29.19,9.95-2.78-1.14,13.88-21.84,5.95,3.61-43.03zm24.9-6.97,11.43-3.03,8.66,20.92h0.27c-0.11-3.6-0.34-7.12-0.05-10.87l1.15-12.88,11.34-3.12-3.6,42.99-11.37,3.12-8.52-19.66-0.45,0.09c0.14,2.89,0.26,5.53,0,8.47l-1.16,14.03-11.25,3.06,3.55-43.12zm-95.99,26.78,11.51-3.22-1.88,18.79,0.26-0.07c0.47-1.85,1.3-3.6,2.09-5.38l6.87-15.4,12.95-3.57-11.97,23.77,9.5,19.02-13.73,3.85-4.65-11.55c-0.55-1.42-1.43-2.73-1.45-4.39l-0.33,0.09-1.29,17.99-11.51,3.14,3.63-43.07zm206.47-77.53-21.44-74.16-264.62,74.41,16.385,75.54,269.67-75.79z"/>

 <path fill="#ed1c23" d="M90.556,442.91l34.704-10.78-6.13,65.34-24.244,6.76,4.143-44.4-10.423,3.61,1.95-20.53zm64.684,34.94c-0.61,6.76-7.8,12.53-14.27,14.51-6.6,1.71-12.96-0.18-12.32-7.01,0.64-7.09,7.83-13.07,14.34-14.77,6.47-1.86,12.89,0.25,12.25,7.27zm15.99-58.62l44.96-12.74-1.67,18.85-20.49,5.61-0.6,6.88,17.98-5-1.63,16.82-17.94,5.08-2.18,22.88-24.62,6.93,6.19-65.31zm102.89-3.08c-3.62-2.42-8.27-4.01-13.8-2.48-7.34,2.08-13.86,9.32-14.56,16.45-0.65,7.12,5.17,10.91,12.47,8.84,5.63-1.54,10.31-5.12,14.59-10l-3.03,24.64c-4.07,2.92-13.24,6.23-17.58,7.45-19.23,5.38-32.88-4.85-31.12-23.41,1.76-19.06,18.68-38.63,38.44-44.23,5.49-1.56,11.07-2.24,16.13-1.83l-1.54,24.57z" fill-rule="evenodd"/>

 <path d="m176.55,185.67c-1.12,6.01-3.58,9.07-7.86,10.04-4.98,0.6-7.09-4.91-6.46-4.87,4.86,0.88,9.98-1.87,13.02-5.81,0.74-1.04,1.48-0.31,1.3,0.64zm19.1-26.49c2.46,9.58,0.64,13.29-1.57,15.59-0.81,0.73-5.96,1.65-6.64-4.95,2.58-3.11,4.16-7.84,5.7-11.19,1.08-2.15,1.77-2.29,2.51,0.55zm16.59-20.08c2.06,4.78-3,7.12-5.95,7.71-2.08,0.37-3.63-0.21-5.39-1.36-0.97-0.7-0.45-1.2-1.21-1.57-1.58-0.09-1.2,0.92-2.91,1.33-1.18,0.14-1.28-0.41-0.49-1.61,1.92-3.2,2.98-5.45,6.15-6.73,2.94-1.19,7.26-2.43,9.8,2.23zm-23.93-3.84c2.84,4.08,1.61,10.46-0.87,15.22-1.96,3.67-5.17,9.54-6.43,12.1-0.52,1.55-1.64,1.65-2.57,1.23-0.95-0.18,3.46-7.52,4.71-16.12,0.51-3.53-0.43-8.67,2.14-12.52,0.88-1.28,2.2-0.87,3.02,0.09zm29.4-1.1c0.49,2.01,0.12,2.15-1.6,1.01-5.65-5.93-10.48-4.4-13.91-2.6-1.67,0.69-2.18,0.64-1.7-0.88,5.21-7.98,14.71-4.04,17.21,2.47zm203.22,144.64c2.75,0.87,3.9,3.7,2.93,5.31-1.13,2.62-3.47,4.4-3.52,6.91-0.05,2.12-0.42,3.4-2.1,3.95-3.1,0.33-4.91-6.09-7.67-1.64-1.5,2.29-4.62,0.72-5.03-0.55-0.55-1.97-1.74-3.99-3.72-4.08-6.45-0.19-8.06-10.28-7.02-13,4.97-11.7,17.21,0.02,26.13,3.1zm-166.81-175.43c0.6-0.18,0.8,0.21,0.8,0.46-0.46,7.83-8.78,23.51-19.59,26.31-0.64,0.12-1.04,0.05-1.26-0.55-0.99-5.46,2.45-14.73,11.25-18.11,4.35-1.69,6.42-4.58,8.8-8.11z"/>

</svg>

