<!-- Created with Inkscape (http://www.inkscape.org/) -->

<svg xmlns:rdf="http://www.w3.org/1999/02/22-rdf-syntax-ns#" xmlns="http://www.w3.org/2000/svg" xml:space="preserve" height="390" width="500" version="1.1" xmlns:cc="http://creativecommons.org/ns#" xmlns:dc="http://purl.org/dc/elements/1.1/"><metadata><rdf:RDF><cc:Work rdf:about=""><dc:format>image/svg+xml</dc:format><dc:type rdf:resource="http://purl.org/dc/dcmitype/StillImage"/><dc:title/></cc:Work></rdf:RDF></metadata><g transform="matrix(0.26496,0,0,0.26496,4.6406,7.6804)"><g transform="matrix(1.2501,0,0,-1.2498,-106.03,1220.4)"><path d="m656.12-120.56c-108.87,20.42-213.67,83.904-327.53,61.257-30.18-17.32-46.05,5.495-47.07,32.815-9.76,46.279-22.07,92.137-30.16,138.69,33.92,26.86,89.89,19.32,133.13,21.9,151.48-6.15,292.34-80.956,445.13-76.589,169.39-1.785,325.98,92.349,496.48,74.809,26.4-4.76,86.8-0.34,67.8-42.705-11.9-49.518-20.9-99.94-34.7-148.87-36.9-9.838-82.4,13.911-123.2,2.935-99-13.58-190-61.05-289.53-72.73-96.21-13.91-195.19-11.73-290.35,8.49z" fill-rule="evenodd" fill="#ffe000"/><path d="m654.21,756.22c-10.01,3.53,2.4,16.2-3.41,23.7-2.86,13.88-22.82,4.38-26.13,14.15-4.88,15.09-9.76,30.17-14.64,45.26,13.35,5.08,18.65,24.14,2.5,29.84-13.03,0.39-14.61,12.51-7.05,21.26,10.76,11.62,18.55,24.34,35.97,26.09,124.27,43.56,264.05,41.02,386.55-7.41,5.1-12.58,22.9-18.6,20.1-34.36-7.7-5.24-27.5-9.87-20.8-24.45,4.7-7.27,16.2-9.88,9-19.64-4.3-13.48-8.7-26.96-13-40.44-11.9,1.1-28.3-4-26.02-18.91,6.82-12.71-4.57-15.1-9.36-25.08-5.51-12.03,0.78-24.17,4.41-35.64-53.23,27.38-112.83,42.7-172.85,41.42-56.56-0.41-112.38-15.62-162.55-41.42,4.01,12.04,10.26,25.16,3.56,37.56-1.46,3.08-3.31,6.21-6.28,8.07z" fill-rule="evenodd" fill="#ffe000"/><path d="m1558.1,755.98c-25.7,31.68-88.9,27.74-99.2-15.96-10.5-29.34,29-40.42,10.3-70.1-6.8-43.12,11.4-84.36,36.9-118.05,21.7-33.63,36.7-84.15,4.1-116.1-13.9-15.17-64.2-33.75-72-12.62,3.1,50.92-46,80.81-61.6,125.02-2.5,17.18-37.1,71.13-1.1,66.04,19.3,6.09,26.1,12.77,4.9,19.18-17.7,24.48-10.8,64.22,22.4,49.37,16.5,15.51,15.3,32.6-9.5,29.26-14.2,19.36,4.2,39.61,24.4,32.55,11.3,18.11,10.1,39-14.4,29.76-20.9,15.25-9.6,45.12,14.6,42.28,13,18.04,3.3,46.34-19.5,28.53-13.4,1.25-21.1,36.42-13.3,37.24,32.6-3.73,7.9,63.43-6.9,26.77-19.6-6.47-48.1,20.89-20.5,32.31-1.9,16.96-29.9,30.78-28.8,6.51-12.7-3.83-53-4.48-47.9,5.18,17.2,17-32,27.66-23.5,4.73-19.7-11.24-49.5-12.97-38-38.46-27-4.12-45.3-26.34-75.4-23.6-15.7-1.49-21,41.21-41.7,34.57-19.2,4.22-38,3.23-55.6-1.3-43.3-3.78,9.1-37.2,0.7-53.83-45.6-11.55,5.2-52.06,28.9-51.01,25.2,10.69,39.3-35.74,44.5-54.54,9.1-23.76-24.6,7.5-35.1,6.21-25.4,7.96-79.5,36.23-87.06-3.95,3.96-17.01-31.32-49.91,7.36-51.99,4.9-25.62,34.6-13.44,52.7-13.27,35.6,2.44,49.2-28.57,64.2-55.44,20.6-31.33,38.5-70.93,75.9-84.96,15.6-36.38,57.2-51.44,74.5-87.13,13.8-20.93,28.2-63.82-12.2-52.96-42.4-2.49-57.3-60.36-28.9-87.9,16.8-26.28,64.9-27.65,69-59.7-15.9-28.38-46.5-45.55-75.1-59.15-32.9,3.89-67.1-34.57-44.2-64.09,22.4-18.86,54.7-18.21,80.1-12.55,25.6-17.76,37.3,21.86,59.7,4.85,39.6-13.73,35.7,47.34,63.7,62.96,14.3,26.33,65.6,35.56,60.4,67.46-21.1,25.47-53.5,54.02-38.5,91.28,13.5,28.08,40.5,10.3,63.9,15.79,56.2,4.32,95,63.79,83.1,117.46-7.6,55.98-65.2,93.11-61.4,152.08-2.2,26.41,3.3,46.38,31.4,46.04,15,16.41,12.9,43.6,34,55.33" fill-rule="nonzero" fill="#e2001a"/><path d="m655.42,757.18c-6.27,12.55-2.57,43.2-32.02,33.8-33.5-4.69-64.93-18.57-94.97-33.6,4.45,26.59,15.13,53.26,37.54,69.68,19.97-13.27,68.86,17.9,52.9,39.64-41.3,8.46,11.6,34.73,1.93,54.68-21.08,18.41-49.16,9.18-73.45,7.76-22.31,6.2-22.71-43.94-43.95-33.63-29.65-4.3-45.86,21.37-73.08,22.79,21.37,34.88-35.61,19.87-38.79,46.68-1.85,12.93-43.05-3.93-17.06-20.32-17.5,7.1-58.24-14.97-54.95,16.99-27.52-2.35-25.66-25.54-20.42-43.35-8.94-28.65-46.25-4.9-40.97-1.42-14.67-15-8.28-40.74,14.39-36.55-2.35-25.98-19.19-44.83-40.44-32.11-15.48-25.94,8.32-37.53,25.8-42.06,6.17-19.79-7.69-44.82-29.84-30.2-6.72-23.23,9.01-40.08,29.6-34.47,17.38-22.78-8.18-36.43-20.45-37.38,0-29.25,24.77-19.97,39.85-20.94,11.09-20.97-3.14-55.15-20.21-58.51,14.87-15.96,47.34-1.83,32.2-32.93-7.68-44.56-34.14-81.68-60.96-116.59-18.75-14.24-5.16-52.93-21.35-59.63-40.79-7.14-86.25,23.62-84.5,67.2-0.65,60.87,61.96,99.19,60.78,160.23,3.64,28.1-16.11,56.16,10.34,75.73,8.56,38.26-33.93,67.97-68.8,56.1-19.69-5.25-44.101-20.29-16.1-34.65,2.99-28.91,25.86-43.95,45.74-50.56,12.69-41.66-0.22-86.51-26.92-119.77-29.226-39.8-44.778-96.46-16.74-141.05,23.24-39.45,73.71-51.3,116.13-42.17,25.95-14.87,26.49-49.7,9.63-72.05-26.79-22.03-48.75-57.62-3.61-73.76,31.66-23.41,57.25-54.77,71.86-91.47,16.78-15.41,42.17,17.16,53.66-7.05,28.95,3.69,57.7-9.22,86.52,1.29,24.98,3.07,43.77,29.28,26.24,53.65-21.45,28.02-64.18,20.03-88.5,47.03-27.02,13.49-49.24,52.37-6.34,62.78,29.48,14.94,65.32,40.6,56.84,78.69-3.15,33.19-40.05,44.58-68.65,41.85-1.94,48.75,37.75,84.16,71.86,112.9,10.38,28.21,40.13,32.83,56.54,56.4,26.62,31.93,41.74,71.96,69.85,102.68,24.64,5.28,43.26,9.12,66.74,0.76,15.77,6.88,10.98,23.29,31.5,22.39,7.23,10.06,3.85,26.69-5.47,34.32" fill-rule="nonzero" fill="#e2001a"/><a transform="matrix(1.9892,0,0,1.9892,-83.905,150.71)"/><path d="m1429.3,476.97c6.6-7.17,10.2-17.31,12.5-35.59,2.3-18.68-0.2-43.26-4.9-47.96-1.9-1.88-7.5-2.91-16.6-3.01-12-0.14-14.6,0.53-20.9,5.33-4.5,3.4-9.5,10.33-13.2,18.24-7.9,16.72-14.6,18.97-25.8,8.72l-4.5-4.1,4.2-2.93c5.1-3.55,9.8-14.17,9.8-22.03,0-3.16-2.7-13.54-6-23.06-3.3-9.53-6-18.62-6-20.2,0-5.01-3.8-5.52-9.8-1.3-13.8,9.88-19.8,8.99-23.9-3.62-3.2-9.65-3-10.08,4.2-8.9,5.1,0.83,8.6-0.36,16.4-5.63,16.8-11.25,22.5-22.77,26.1-52.03,0.7-5.14,3.2-12.34,5.7-16l4.4-6.65,35-1.04c38.7-1.15,37.2-0.71,57.1-17.41,7.3-6.09,15-10.12,26.4-13.79,19.5-6.25,31-15.31,37.7-29.64,5.9-12.82,5.9-20.3-0.3-39.69-2.8-8.57-5-17.02-5-18.78s3.5-7.04,7.9-11.74c18.6-20.18,10-39.425-19-42.571-11-1.194-15.1-2.613-19.5-6.749-7.6-7.134-20.9-9.904-49.9-10.42l-24.5-0.437-0.6-5.254c-0.6-4.689,0.3-5.49,8-7.435,24.2-6.129,37.7-13.951,40.5-23.583,2-6.702,6.9-8.407,13.1-4.522,2.5,1.602,2.1,3.488-2.5,13.014-3,6.127-5.5,11.444-5.5,11.815,0,0.773,52.9,3.4,65,3.228,9.1-0.128,16.8-4.865,20.6-12.672,3.1-6.406,4.3-6.53,11.1-1.175,7.7,6.006,6.6,10.536-4.8,20.114l-10.1,8.498,7.8,7.121c4.3,3.917,11.1,11.292,15,16.389,5.4,6.829,9.1,9.613,14.3,10.589,9.2,1.72,21.2-1.621,27.8-7.746,4.8-4.422,5.4-4.567,7-1.503,7.7,14.979,3.4,23.469-12.8,25.489-10.3,1.29-11.1,1.76-9.9,5.66,4.6,14.4,7,24.93,7,30.59,0,15.99,11.6,25.76,28.6,24.15,5.7-0.53,12-1.64,13.9-2.45,3.1-1.3,3.5-0.18,3.5,9.5,0,14.74-2.5,16.58-21.3,15.85l-14.7-0.56v25.93c0,24.83,0.2,26.18,5.1,31.95,6.3,7.52,16.5,11.04,26.9,9.28l8-1.34-1.3,6.67c-2.6,13.5-4.2,15.68-11.2,15.63-3.6,0-10.5-1.84-15.3-4.04-4.8-2.19-8.9-3.75-9.1-3.45-1.3,2.43-9.9,33.86-10.6,38.67-2,14.35,9.1,26.67,24.5,27.25,8.3,0.31,9.2,4.27,2.9,12.34-5.1,6.37-7.6,6.52-18.3,1.07-21.1-10.75-34.8,10.15-29.4,44.84,2.7,17.45,6.6,26.63,14.2,33.71l6,5.61-5.6,2.12c-15.6,5.93-23.2-1.14-31.9-29.67-6.8-22.35-14.2-30.41-27.7-30.41-18.9,0-27.6,16.24-21.8,40.72,6.1,25.93,6.4,29.96,3.3,36.51-2.7,5.81-9.8,10.77-15.3,10.78-1.7,0-2.2-4.19-1.8-14.57,1.1-24.12-8-55-17.9-61.18-5.8-3.63-20.1-3.21-27.8,0.81-4.1,2.09-7.7,6.47-10.3,12.47-3.6,8.03-4,11.93-3,29.32,1.6,30.23-3.6,39.1-24.1,40.73l-11.5,0.91,4.4-4.78z" fill-opacity="0" transform="matrix(0.8,0,0,-0.8,84.825,976.35)"/><path d="m1429.3,476.97c6.6-7.17,10.2-17.31,12.5-35.59,2.3-18.68-0.2-43.26-4.9-47.96-1.9-1.88-7.5-2.91-16.6-3.01-12-0.14-14.6,0.53-20.9,5.33-4.5,3.4-9.5,10.33-13.2,18.24-7.9,16.72-14.6,18.97-25.8,8.72l-4.5-4.1,4.2-2.93c5.1-3.55,9.8-14.17,9.8-22.03,0-3.16-2.7-13.54-6-23.06-3.3-9.53-6-18.62-6-20.2,0-5.01-3.8-5.52-9.8-1.3-13.8,9.88-19.8,8.99-23.9-3.62-3.2-9.65-3-10.08,4.2-8.9,5.1,0.83,8.6-0.36,16.4-5.63,16.8-11.25,22.5-22.77,26.1-52.03,0.7-5.14,3.2-12.34,5.7-16l4.4-6.65,35-1.04c38.7-1.15,37.2-0.71,57.1-17.41,7.3-6.09,15-10.12,26.4-13.79,19.5-6.25,31-15.31,37.7-29.64,5.9-12.82,5.9-20.3-0.3-39.69-2.8-8.57-5-17.02-5-18.78s3.5-7.04,7.9-11.74c18.6-20.18,10-39.425-19-42.571-11-1.194-15.1-2.613-19.5-6.749-7.6-7.134-20.9-9.904-49.9-10.42l-24.5-0.437-0.6-5.254c-0.6-4.689,0.3-5.49,8-7.435,24.2-6.129,37.7-13.951,40.5-23.583,2-6.702,6.9-8.407,13.1-4.522,2.5,1.602,2.1,3.488-2.5,13.014-3,6.127-5.5,11.444-5.5,11.815,0,0.773,52.9,3.4,65,3.228,9.1-0.128,16.8-4.865,20.6-12.672,3.1-6.406,4.3-6.53,11.1-1.175,7.7,6.006,6.6,10.536-4.8,20.114l-10.1,8.498,7.8,7.121c4.3,3.917,11.1,11.292,15,16.389,5.4,6.829,9.1,9.613,14.3,10.589,9.2,1.72,21.2-1.621,27.8-7.746,4.8-4.422,5.4-4.567,7-1.503,7.7,14.979,3.4,23.469-12.8,25.489-10.3,1.29-11.1,1.76-9.9,5.66,4.6,14.4,7,24.93,7,30.59,0,15.99,11.6,25.76,28.6,24.15,5.7-0.53,12-1.64,13.9-2.45,3.1-1.3,3.5-0.18,3.5,9.5,0,14.74-2.5,16.58-21.3,15.85l-14.7-0.56v25.93c0,24.83,0.2,26.18,5.1,31.95,6.3,7.52,16.5,11.04,26.9,9.28l8-1.34-1.3,6.67c-2.6,13.5-4.2,15.68-11.2,15.63-3.6,0-10.5-1.84-15.3-4.04-4.8-2.19-8.9-3.75-9.1-3.45-1.3,2.43-9.9,33.86-10.6,38.67-2,14.35,9.1,26.67,24.5,27.25,8.3,0.31,9.2,4.27,2.9,12.34-5.1,6.37-7.6,6.52-18.3,1.07-21.1-10.75-34.8,10.15-29.4,44.84,2.7,17.45,6.6,26.63,14.2,33.71l6,5.61-5.6,2.12c-15.6,5.93-23.2-1.14-31.9-29.67-6.8-22.35-14.2-30.41-27.7-30.41-18.9,0-27.6,16.24-21.8,40.72,6.1,25.93,6.4,29.96,3.3,36.51-2.7,5.81-9.8,10.77-15.3,10.78-1.7,0-2.2-4.19-1.8-14.57,1.1-24.12-8-55-17.9-61.18-5.8-3.63-20.1-3.21-27.8,0.81-4.1,2.09-7.7,6.47-10.3,12.47-3.6,8.03-4,11.93-3,29.32,1.6,30.23-3.6,39.1-24.1,40.73l-11.5,0.91,4.4-4.78z" fill-opacity="0" transform="matrix(0.8,0,0,-0.8,84.825,976.35)"/><path d="m351.25,1036.4c-4.21-1.5-7.93-3.1-8.27-3.5-0.34-0.3-5.13-9.6-10.65-20.6-20.29-40.54-48.42-72.79-90.67-104.02-19.86-14.68-25.76-20.01-25.76-23.28,0-0.82,6.32-8.84,14.06-17.81,18.59-21.59,22.75-29.79,22.79-44.94,0.1-22.91-6.89-32.86-53.9-77.13-17.24-16.23-24.72-30.36-26.35-49.72-2.07-24.77,7.85-51.49,29.52-79.47,18.25-23.56,31.2-43.66,39.81-61.77,14.21-29.92,26.02-68.16,26.1-84.53,0-4.84,2.09-10.4,6.02-16.2,3.29-4.85,8.27-16.1,11.08-25,6.43-20.4,10.04-26.35,14-23.07,3.81,3.17,3.62,7.22-1.13,24.38-6.1,22.02-4.28,39.14,5.31,49.93,9.92,11.16,31.14,14.62,45.88,7.49,10.51-5.09,12.26-9.11,6.58-15.15-3.35-3.56-4.34-7.09-4.34-15.4,0-12.95,5.9-38.31,9.64-41.41,4.25-3.53,10.92,1.11,10.96,7.62,0.22,37.65,1.21,47.73,5.5,55.83,2.45,4.62,6.81,10.02,9.7,12,6.14,4.21,11.47,9.56,19.73,19.81,6.16,7.65,18.75,14.67,26.42,14.75,11.14,0.11,4.78,9.13-23.23,32.94-39.89,33.92-63.12,70.29-71.56,112-1.59,7.88-1.61,7.89-14.71,10.3-14.81,2.72-27.52,8.18-30.59,13.15-1.47,2.36-1.36,4.92,0.37,8.7,2.77,6.08,5.34,6.07,31.34-0.1,17.2-4.08,53.26-3.06,66.86,1.9,21.23,7.74,32.34,24.36,32.72,48.91,0.43,27.95-14.23,45.34-62.6,74.25-15.64,9.35-30.99,19.9-34.11,23.45-13.55,15.42-9.19,31.57,14.98,55.56,26.92,26.7,67.9,51.07,92.57,55.05,21.14,3.4,31.86,10.24,39.06,24.93,6.69,13.63,5.49,30.95-2.59,37.45-5.83,4.8-7.11,3.4-8.56-8.8-1.53-12.9-10.14-31-15.57-32.72-6.18-1.96-13.34,0.6-14.84,5.31-0.87,2.76,0.52,7.9,3.99,14.81,2.93,5.7,5.84,15.4,6.46,21.4,1.13,11,1.12,11-5.42,13.3-7.16,2.5-20.03,2.9-29.47,1.1-5.65-1.2-6.09-1.9-7.33-12.9-0.79-7-3.89-16.7-7.73-24.3-5.32-10.48-7.38-12.76-12.04-13.29-11.56-1.33-14.51,7.52-7.2,21.59,2.31,4.4,4.66,11.5,5.22,15.7,0.94,7,0.53,7.9-4.68,10-10.14,4-15.56,4.3-23.37,1.5z" fill-opacity="0" transform="matrix(0.8,0,0,-0.8,84.825,976.35)"/><path d="m351.25,1036.4c-4.21-1.5-7.93-3.1-8.27-3.5-0.34-0.3-5.13-9.6-10.65-20.6-20.29-40.54-48.42-72.79-90.67-104.02-19.86-14.68-25.76-20.01-25.76-23.28,0-0.82,6.32-8.84,14.06-17.81,18.59-21.59,22.75-29.79,22.79-44.94,0.1-22.91-6.89-32.86-53.9-77.13-17.24-16.23-24.72-30.36-26.35-49.72-2.07-24.77,7.85-51.49,29.52-79.47,18.25-23.56,31.2-43.66,39.81-61.77,14.21-29.92,26.02-68.16,26.1-84.53,0-4.84,2.09-10.4,6.02-16.2,3.29-4.85,8.27-16.1,11.08-25,6.43-20.4,10.04-26.35,14-23.07,3.81,3.17,3.62,7.22-1.13,24.38-6.1,22.02-4.28,39.14,5.31,49.93,9.92,11.16,31.14,14.62,45.88,7.49,10.51-5.09,12.26-9.11,6.58-15.15-3.35-3.56-4.34-7.09-4.34-15.4,0-12.95,5.9-38.31,9.64-41.41,4.25-3.53,10.92,1.11,10.96,7.62,0.22,37.65,1.21,47.73,5.5,55.83,2.45,4.62,6.81,10.02,9.7,12,6.14,4.21,11.47,9.56,19.73,19.81,6.16,7.65,18.75,14.67,26.42,14.75,11.14,0.11,4.78,9.13-23.23,32.94-39.89,33.92-63.12,70.29-71.56,112-1.59,7.88-1.61,7.89-14.71,10.3-14.81,2.72-27.52,8.18-30.59,13.15-1.47,2.36-1.36,4.92,0.37,8.7,2.77,6.08,5.34,6.07,31.34-0.1,17.2-4.08,53.26-3.06,66.86,1.9,21.23,7.74,32.34,24.36,32.72,48.91,0.43,27.95-14.23,45.34-62.6,74.25-15.64,9.35-30.99,19.9-34.11,23.45-13.55,15.42-9.19,31.57,14.98,55.56,26.92,26.7,67.9,51.07,92.57,55.05,21.14,3.4,31.86,10.24,39.06,24.93,6.69,13.63,5.49,30.95-2.59,37.45-5.83,4.8-7.11,3.4-8.56-8.8-1.53-12.9-10.14-31-15.57-32.72-6.18-1.96-13.34,0.6-14.84,5.31-0.87,2.76,0.52,7.9,3.99,14.81,2.93,5.7,5.84,15.4,6.46,21.4,1.13,11,1.12,11-5.42,13.3-7.16,2.5-20.03,2.9-29.47,1.1-5.65-1.2-6.09-1.9-7.33-12.9-0.79-7-3.89-16.7-7.73-24.3-5.32-10.48-7.38-12.76-12.04-13.29-11.56-1.33-14.51,7.52-7.2,21.59,2.31,4.4,4.66,11.5,5.22,15.7,0.94,7,0.53,7.9-4.68,10-10.14,4-15.56,4.3-23.37,1.5z" fill-opacity="0" transform="matrix(0.8,0,0,-0.8,84.825,976.35)"/><path d="m351.25,1036.4c-4.21-1.5-7.93-3.1-8.27-3.5-0.34-0.3-5.13-9.6-10.65-20.6-20.29-40.54-48.42-72.79-90.67-104.02-19.86-14.68-25.76-20.01-25.76-23.28,0-0.82,6.32-8.84,14.06-17.81,18.59-21.59,22.75-29.79,22.79-44.94,0.1-22.91-6.89-32.86-53.9-77.13-17.24-16.23-24.72-30.36-26.35-49.72-2.07-24.77,7.85-51.49,29.52-79.47,18.25-23.56,31.2-43.66,39.81-61.77,14.21-29.92,26.02-68.16,26.1-84.53,0-4.84,2.09-10.4,6.02-16.2,3.29-4.85,8.27-16.1,11.08-25,6.43-20.4,10.04-26.35,14-23.07,3.81,3.17,3.62,7.22-1.13,24.38-6.1,22.02-4.28,39.14,5.31,49.93,9.92,11.16,31.14,14.62,45.88,7.49,10.51-5.09,12.26-9.11,6.58-15.15-3.35-3.56-4.34-7.09-4.34-15.4,0-12.95,5.9-38.31,9.64-41.41,4.25-3.53,10.92,1.11,10.96,7.62,0.22,37.65,1.21,47.73,5.5,55.83,2.45,4.62,6.81,10.02,9.7,12,6.14,4.21,11.47,9.56,19.73,19.81,6.16,7.65,18.75,14.67,26.42,14.75,11.14,0.11,4.78,9.13-23.23,32.94-39.89,33.92-63.12,70.29-71.56,112-1.59,7.88-1.61,7.89-14.71,10.3-14.81,2.72-27.52,8.18-30.59,13.15-1.47,2.36-1.36,4.92,0.37,8.7,2.77,6.08,5.34,6.07,31.34-0.1,17.2-4.08,53.26-3.06,66.86,1.9,21.23,7.74,32.34,24.36,32.72,48.91,0.43,27.95-14.23,45.34-62.6,74.25-15.64,9.35-30.99,19.9-34.11,23.45-13.55,15.42-9.19,31.57,14.98,55.56,26.92,26.7,67.9,51.07,92.57,55.05,21.14,3.4,31.86,10.24,39.06,24.93,6.69,13.63,5.49,30.95-2.59,37.45-5.83,4.8-7.11,3.4-8.56-8.8-1.53-12.9-10.14-31-15.57-32.72-6.18-1.96-13.34,0.6-14.84,5.31-0.87,2.76,0.52,7.9,3.99,14.81,2.93,5.7,5.84,15.4,6.46,21.4,1.13,11,1.12,11-5.42,13.3-7.16,2.5-20.03,2.9-29.47,1.1-5.65-1.2-6.09-1.9-7.33-12.9-0.79-7-3.89-16.7-7.73-24.3-5.32-10.48-7.38-12.76-12.04-13.29-11.56-1.33-14.51,7.52-7.2,21.59,2.31,4.4,4.66,11.5,5.22,15.7,0.94,7,0.53,7.9-4.68,10-10.14,4-15.56,4.3-23.37,1.5z" fill-opacity="0" transform="matrix(0.8,0,0,-0.8,84.825,976.35)"/><path opacity="0.99" d="m1160.8,403.69c0-185.55-150.4-335.98-335.96-335.98-185.5,0-335.9,150.43-335.9,335.98,0,185.54,150.4,335.96,335.9,335.96,183.66,0,333.36-147.61,335.86-331.33" fill="#f4f0e8"/></g><path d="m687.51,691.62c0-20.01-16.35-36.16-36.47-36.16h-85.79v123.74h87.17c21.01,0,37.99-16.88,37.99-37.51,0-10.56-4.41-20.13-11.45-26.96,5.28-6.21,8.55-14.29,8.55-23.11m-92.45-9.57,52.2,0c5.79,0,10.44,4.6,10.44,10.31,0,5.6-4.65,10.32-10.44,10.32h-52.2v-20.63zm53.71,70.7-53.71,0,0-23.6,53.71,0c6.54,0,11.95,5.21,11.95,11.8,0,6.46-5.41,11.8-11.95,11.8m791.33,404.35-0.8,0-1.4-15.8-27.4,0c0.5,9.2,0.9,20.2,0.9,33.2v72.7h31.4v-61c0-2.7,0.3-5.9,1.2-8,2.6-6.9,9.3-14.4,20.2-14.4,14-0.1,19.9,10.5,19.9,25.7v57.7h31.4v-61.6c0-33.8-19.6-46.8-40.2-46.8-19.3,0-31,11.1-35.2,18.3m-89.6,81.6c-16.7,3.3-32.9-1.2-37-16.2l72.9-13.7c0.1-2.6-0.3-7.2-1.3-12.2-4.5-23.3-22.3-49.6-58.7-42.6-37.8,7.2-48.8,40.3-43.8,66.4,6.4,32,31.8,48.9,68.2,42,15.6-3,28.3-8.1,38.1-14.6l-8.3-19.7c-8.7,4.9-17.8,8.3-30.1,10.6m-21.9-64.2c17.8-3.3,24.4,11.1,25.8,18.4l-45.1,8.7c-0.7-9.3,3.2-24,19.3-27.1m-558.93-519.04-62.64,123.61,32.08,0,10.06-20.6,70.06,0,10.07,20.6,32.07,0-62.64-123.61-29.06,0zm-7.42,76.54,22.01-44.98,21.89,44.98-43.9,0zm-303.16-614.12s-11.83-19.006-29.44-19.006c-7.17,0-24.65,20.376-16.35,27.826,6.92,6.21,45.79-8.82,45.79-8.82m-28.43-9.2c4.28,0,7.8,2.36,10.94,4.73-7.67,2.48-16.35,5.09-19.87,5.96,2.39-5.84,8.05-10.69,8.93-10.69m1398.6,435.96c-12.5-24.97-30.6-50.67-39.5-65.21-7-11.19-12.6-23.11-16.4-36.91-3.4-12.67-5-27.08-4.4-44.11,0.4-11.8,2-23.48,5.3-34.79,23.9,0,34.6-10.18,41.1-23.22,9.2-18.01,10.5-41.37,27.8-50.57,7.7-4.1,9.2-11.43,5.7-16.65-10.7-15.78-77.5-50.45-121.4-9.81-17.5,16.27-21.3,35.41-21.3,51.81,0,9.07,2.3,17.77,6.7,25.22,3.3,5.47,7.5,10.19,13.2,13.9-4.9,22.86-9.2,54.55-3.4,88.22,3.8,21.13,11.3,43,25.3,63.73,7.9,11.8,16.5,24.72,24.2,38.39,18.3,32.31,31.7,68.35,19.2,101.87v0.13c-11.3,30.57-43.4,52.81-92,47.96,0.8-15.65-2.2-31.81-8.6-47.96-7.2-18.12-18.7-36.02-33.6-53.04-10.8-12.3-21.8-29.82-31-48.96-12.4-25.97-21.7-55.02-24-79.13,19.4,1.12,40.6-12.42,46-22.99,3.4-6.46,0.9-11.68-11.5-11.68-22.5,0-21.9-57.03-16.4-57.03,5.7,0,10.5,7.08,17.1,7.7,22.5,1.87,32.5-23.73,33.9-41.11,0.8-9.81-1-17.02-4.9-14.91-12,6.34-35.6,7.46-26.7-10.93,3-6.34,3.4-8.95,3.9-11.81,0.8-3.23,3,5.22,19.6,2.49,28.1-4.72,21.5-73.69,11.3-63.99-12.2,11.55-27.9,10.56-29.5-2.86-0.1-1.37-0.1-2.74-0.1-4.23,0.6-7.82,0.8-10.06,0.1-15.78-0.4-2.73,9.5,1,16.7-0.62,6.7-1.49,16.6-12.03,18.9-19.74,2.1-7.33,2-15.53,0.6-23.48-3.4-18.76-14.1-34.79-17.7-26.96-6.3,13.29-28.2,16.77-27.7,4.47,0.5-14.04-4-21.74-4-21.74s10.3-1.12,14.1-4.11c7.8-5.84,9.3-19.5,8.5-27.699-2.2-23.231-32.8-56.527-32.8-32.303,0,11.929-18.3,21.992-22.9,13.294-5.2-9.565-11.7-13.913-11.7-13.913s9.6-6.338,12.4-14.414c10.6-28.572-56.1-50.066-51-34.162,7.8,24.348-7.2,18.385-26.4,15.156-7.8-1.243-15.5-0.496-15.5-0.496s5.9-10.439,2.6-15.782c-5.6-9.4409-64.2-24.722-51.3-3.602,7.1,11.181-6.3,14.909-17.3,18.761-9.7,3.231-30.7,3.851-34.4,16.276-1.2,4.222,1.1,14.412,2.8,20.375-8.1,0.994-14,2.11-16,2.857-12.1,4.722-16.2,17.642-26.5,19.258-3.7,0.62-19,1.738-23.4,2.233-6.7,0.747-14.1,2.36-21.7,4.35-20.6-48.949-51-45.719-55.1-39.383-8.3-12.3-51.2-14.908-53,0.497-11.7-5.341-29.4-2.484-38.3,6.833-77.3-28.824-161.2-44.6-248.84-44.6-87.54,0-171.44,15.776-248.82,44.6-8.93-9.317-26.54-12.174-38.37-6.833-1.76-15.405-44.65-12.797-53.08-0.497-3.9-6.336-34.46-9.566-54.97,39.383-7.67-1.99-14.97-3.603-21.63-4.35-4.53-0.495-19.75-1.613-23.52-2.233-10.19-1.616-14.34-14.536-26.42-19.258-2.14-0.747-7.92-1.863-15.97-2.857,1.63-6.087,4.02-16.153,2.77-20.375-3.65-12.425-24.66-13.045-34.34-16.276-11.2-3.852-24.41-7.58-17.49-18.761,13.08-21.12-45.53-5.8389-51.32,3.602-3.27,5.343,2.64,15.782,2.64,15.782s-7.55-0.747-15.47,0.496c-19.12,3.229-34.09,9.192-26.42-15.156,5.16-15.904-61.5,5.59-51.06,34.162,3.01,8.076,12.57,14.414,12.57,14.414s-6.54,4.348-11.69,13.913c-4.66,8.573-22.92-1.365-22.92-13.294,0-24.224-30.56,9.072-32.83,32.303-0.75,8.199,0.63,21.859,8.56,27.699,3.77,2.99,14.09,4.11,14.09,4.11s-4.66,7.7-4.03,21.74c0.5,12.3-21.39,8.82-27.67-4.47-3.78-7.83-14.34,8.2-17.74,26.96-1.38,7.83-1.63,16.28,0.5,23.48,2.27,7.71,12.33,18.37,19,19.74,7.17,1.62,17.1-2.11,16.73,0.62-0.76,5.72-0.51,8.08,0,15.78,0.12,1.49,0.12,2.86,0,4.23-1.64,13.42-17.36,14.41-29.56,2.86-10.19-9.7-16.73,59.27,11.32,63.99,16.6,2.73,18.87-5.72,19.49-2.49,0.63,2.86,1.01,5.47,4.03,11.81,8.81,18.39-14.72,17.27-26.67,10.93-3.9-2.11-5.78,5.1-5.03,14.91,1.51,17.38,11.45,42.98,33.96,41.11,6.67-0.62,11.45-7.7,17.11-7.7,5.56,0,6.18,57.03-16.35,57.03-12.45,0-14.97,5.35-11.7,11.68,5.53,10.57,26.79,24.11,46.06,22.99-2.14,24.11-11.57,53.16-24.05,79.13h0.13c-9.31,19.14-20.13,36.66-31.07,48.96-14.84,17.02-26.29,35.04-33.46,53.04-6.41,16.15-9.56,32.31-8.81,47.96-48.42,4.85-80.493-17.39-91.816-47.96l-0.126-0.13c-12.328-33.52,1.007-69.56,19.247-101.87,7.798-13.67,16.352-26.59,24.145-38.39,13.96-20.73,21.64-42.6,25.28-63.73,5.92-33.67,1.64-65.36-3.27-88.22,5.54-3.71,9.94-8.43,13.21-13.9,4.4-7.45,6.54-16.15,6.54-25.22,0-16.4-3.64-35.54-21.13-51.81-43.893-40.64-110.82-5.97-121.51,9.81-3.5221,5.22-1.8878,12.55,5.7847,16.65,17.361,9.07,18.621,32.56,27.801,50.57,6.542,13.04,17.234,23.22,41.135,23.22,3.144,11.31,4.78,22.99,5.282,34.79,0.63,17.03-1.006,31.44-4.4,44.11-3.776,13.8-9.438,25.72-16.356,36.91-8.931,14.54-27.043,40.24-39.623,65.21-0.88,1.74-1.762,3.61-2.642,5.47-14.466,30.82-18.996,65.11-13.084,96.53,8.3035,44.61,37.488,83.62,89.062,99.78,14.459,4.59,45.779,8.7,78.489,2.98,2.01,2.36,4.15,4.72,6.54,7.08,2.77,2.74,6.16,5.6,9.68,8.7,6.67,20.23,5.41,44.09-16.22,68.69-16.48,18.89-29.18,31.56-34.09,42.5-6.16,13.55-0.5,24.6,23.77,41.87,85.18,60.37,91.47,105.76,103.17,123.86-17.99,2.6-36.5,6-55.37,10.4-9.05,2.1-27.54,7.2-21.51,34.2l4.4,19.3,43.55,193.4c7.17,31.4,30.82,23.7,42.14,20.7,207.04-54.1,306.91,92.2,645.42,92.2,338.44,0,438.24-146.3,645.34-92.2,11.4,3,35.1,10.7,42.3-20.7l43.5-193.4,4.4-19.3c6-27-12.5-32.1-21.7-34.2-18.8-4.4-37.2-7.8-55.2-10.4,11.6-18.1,18-63.49,103-123.86,24.4-17.27,30-28.32,23.9-41.87-5-10.94-17.6-23.61-34.2-42.5-21.5-24.6-22.7-48.46-16.2-68.69,3.6-3.1,6.9-5.96,9.8-8.7,2.3-2.36,4.4-4.72,6.6-7.08,32.7,5.72,63.9,1.61,78.5-2.98,51.5-16.16,80.7-55.17,89-99.78,5.9-31.42,1.4-65.71-13.1-96.53-0.9-1.86-1.7-3.73-2.7-5.47m-399.3-493.35c14.7-2.983,23-5.342,33.2-11.182,8.9-5.092,14-14.164,12.3-18.636-2-5.094,13.6,0.123,15.1,2.858,2.6,4.845-10.8,24.352-10.8,24.352s18.4-1.491,29.6-0.994c16.1,0.87,25.6,4.967,37,3.726,13.5-1.367,21-11.928,20.1-19.505-0.6-4.722,17.6,8.076,17,13.418-0.4,4.101-6.5,11.43-21.3,20.996,25.9,14.908,19.4,33.046,41.8,33.924,6.5,0.23,24.1-4.729,26-14.17,1.1-5.591,13.3,15.52,6.1,26.08-3.8,5.47-8,4.97-26.5,6.22,7.4,14.53,8.7,21.37,8.7,33.67,0,11.68,3.8,16.15,12.8,21.74,0.5,0.25,1,0.5,1.5,0.75,6,2.86,16.1,4.47,24.6,0,1.7-0.87,3.4-2.11,4.9-3.6,0.9-0.87,1.7,0.87,2.4,3.6h2.1-2.1c1.4,5.34,1.9,14.91,0.3,18.76-2.1,5.6-5.4,8.7-14.7,8.33-13.9-0.37-21.7-3.11-21.6-0.5,0.6,7.09,1,18.38-0.2,37.27,0,0.5,0,1.12-0.2,1.74-1.5,21.61,22.3,31.43,38.5,22.98,4.2-2.12,0.3,25.34-7.4,26.09-14.3,1.37-27.7-11.56-28.2-7.83-3.6,22.24-8.5,24.6-9.9,35.29-1.5,11.68,3,19.26,9,23.73h0.2c7,5.22,16.3,6.22,21.1,4.23,6-2.61-1.9,24.47-14.6,19.5-4.4-1.74-10.4-7.21-16.3-7.21-9.4,0-15,3.23-18.8,15.16-1.9,6.09-3,19.25-0.9,32.67,1.3,8.45,3,16.77,7.6,24.85,2.6,4.72,7.6,9.94,12.2,11.06,1.6,0.37,2.1,1.12,1.9,1.86-1.2,3.48-17.8,9.2-26.8,3.98-1.4-0.75-2.7-2.11-3.9-3.98-7-10.43-12-35.41-13.6-39.26-5.4-13.42-14.7-17.4-22.4-17.4-11.5,0-20.5,6.71-23.3,17.4-1.9,7.08-0.5,14.54,0.5,18.88,0.9,3.49,3.8,14.17,5.4,20.38,0.5,1.99,0.9,3.48,1,4.1,6.3,29.58-26.6,30.7-23.1,26.97,4.1-4.23,4.4-16.65,2.3-31.07-0.5-3.48-1.3-6.96-2.1-10.56-0.8-4.22-4.5-19.38-8-25.22-5.4-9.07-13-11.56-17.9-11.56-25.9,0-29.9,20.38-29.8,32.06,0.2,2.49,0.4,8.95,0.8,15.28,0.4,6.22,0.6,12.43,0.6,14.42,0,34.79-44.8,25.84-37.1,22.49,7.9-3.6,13.2-15.41,16-36.91,0.4-1.98,0.5-4.1,0.7-6.21,2.2-21.12-3.5-42.12-5.2-42.62-18-5.47-36.3-5.97-47.5,15.91-2.7,5.46-5.3,15.15-8.8,18.01-7.3,5.97-22.2-0.25-25.6-9.81,16.2-6.09,16.9-29.33,9.3-44.73-3.6-7.08-6.6-16.77-8.7-27.57-2.6,2.86-18,14.15-25.7,11.67-3.4-1.12-7-10.31-8-16.77h0.1c-0.7-4.22-0.2-7.33,2.1-6.09,13,7.21,28.5-8.94,34.4-16.52,3.1-3.98,9.7-12.68,10.6-28.83,0.6-11.18,1.7-25.22,14.2-35.29,29.4,1.62,62.4,1.99,70.3-2.23,7.1-3.86,12.9-8.7,17.8-13.04,6.6-5.84,11.6-10.81,16.3-11.81,19-3.6,40.1-11.3,49.2-31.92,3.7-8.33,4.7-14.41,4.5-20.13-0.8-10.93-7.1-20.38-11.2-41.87,23.4-17.77,22.4-34.788,10.5-44.85-5-4.225-20.8-6.71-35.8-6.71-4.2-16.522-46.5-17.516-78-15.282-0.7-2.359-1.5-5.342-2.3-7.577-1.2-4.35-1.2-5.593,5.7-6.958m62.4,628.28c-78,0-86.9,49.58-86.9,76.91,0,71.93,105.3,94.17,105.3,112.93,0,2.12-0.8,4.47-2.2,6.96-12.7,23.48-78.7,65.84-93.3,65.84-31.1,0-46.3,18.26-51.1,24.1-16.1,20.51-22.4,70.69,14.6,79.99-79,13.1-153.8,36.8-232.4,55.8,89.6-50.1,160.2-129.82,197.9-225.73,19.7-49.7,30.4-103.73,30.4-160.39,0-23.49-1.9-46.73-5.6-69.34-5.6-35.52-15.6-69.81-29.3-102-15.6-36.9-36.2-71.18-60.9-102.12h0.2c-26.1-32.68-56.6-61.63-90.9-86.11,7.3-1.24,14.6-3.95,20.8-8.18,12.6,4.84,28.7,9.8,42.1,9.68,16.9,17.27,34.9,51.44,55.8,84.61,22,34.92,47.1,68.57,77.1,79.76,3.9,8.2,8.5,15.78,13.4,22.36,7,8.95,14.5,16.4,21.8,21.87,19.4,14.54,51.6,45.85,66,80.13,4.6,10.81,7.2,21.99,7.2,32.93m-467.3,426.43c-31.61,7.9-64.82,12-99.04,12-34.08,0-67.29-4.1-99.11-12-123.28-30.5-224.43-116.45-274.24-229.63-21.64-49.08-33.71-103.36-33.71-160.39,0-23.62,2.14-46.73,6.04-69.34,6.29-35.77,17.48-70.06,32.7-102,17.99-37.65,41.64-72.05,69.94-102.12,42.01-44.61,94.23-79.89,152.85-102.12,45.16-17.02,94.34-26.46,145.53-26.46,51.32,0,100.34,9.44,145.44,26.46h0.1c58.7,22.23,110.9,57.51,152.7,102.12,28.4,30.07,52.1,64.47,70,102.12,15.3,31.94,26.4,66.23,32.7,102,4,22.61,6,45.72,6,69.34,0,57.03-11.9,111.31-33.6,160.39-49.9,113.18-150.9,199.23-274.3,229.63m-537.29-139.69c-4.66-5.84-19.88-24.1-50.95-24.1-14.59,0-80.63-42.23-93.33-65.84-1.39-2.61-2.14-4.84-2.14-6.96,0-18.76,105.28-41,105.28-112.93,0-27.46-8.93-76.91-87.04-76.91,0-10.94,2.77-22.12,7.29-32.93h-4.4,4.4c14.34-34.28,46.67-65.59,66.04-80.13,7.3-5.47,14.85-12.92,21.64-21.87,5.03-6.58,9.56-14.16,13.46-22.36,30.06-11.19,55.09-44.84,77.1-79.76,20.88-33.17,39-67.34,55.73-84.61,13.46,0.12,29.56-4.84,42.26-9.68,6.17,4.23,13.33,6.94,20.63,8.18-34.09,24.36-64.65,53.43-90.69,86.11-24.66,30.94-45.16,65.22-60.76,102.12-13.71,32.19-23.77,66.48-29.43,102-3.52,22.61-5.41,45.85-5.41,69.34,0,56.66,10.69,110.69,30.31,160.39,37.61,95.91,108.18,175.63,198.01,225.73-78.63-19-153.48-42.5-232.6-55.8,37.11-9.3,30.82-59.48,14.6-79.99m917.19-459.19c-23.5,0-47.1-22.47-72.9-60.74-0.7-1.37-1.6-2.61-2.5-3.86-11.2-17.27-21.7-35.29-31.5-51.44-10.6-17.4-21.7-34.67-33-46.33l-4.1-4.35-1.7-1.61c-20.7,2.48-52.8-11.93-52.8-11.93l-8.4,5.72c-7.2,4.96-17,6.46-24.7,5.34-6-0.99-8.3-4.47-8.9-8.95-1.3-9.57,7.3-16.77,12.6-19.51,10.9-5.22,3-21.49-8-16.27,0,0-12.8,5.09-21.1,21.87-9.2,0.87-10.1-3.98-10.6-9.7-1.1-10.81,5.4-29.94,34.7-30.07,12.2,0.87,13.5-17.14,1.3-18.01,0.1,0-12.8-0.75-21.1,2.98-1.5-8.58,1.6-12.68,5.3-14.04,10.5-3.98,39.3-4.23,107.4,25.47,15.3,6.71,47.6,26.09,78.6,37.77-6.8,8.08-17.6,12.68-27.8,4.35-8.8-7.2-12,9.2-9.1,26.59,2.6,15.14,9.7,31.05,21.5,32.79,9.7,1.36,17.2-4.48,17.2-4.48s1.2,8.58,3.6,13.18c5.8,10.93,3.4,24.1-14.5,23.11-0.2,13.17,7.1,29.57,20,37.52,8.1,4.97,18.3,6.71,30.2,2.36,1.8-0.62,3.4-1.36,4.8-2.36,16.1-10.68,10.2-38.27,33-34.67,0.7,0.13,3.2,12.06,2,27.09-0.2,2.74-0.5,5.22-0.8,7.58-5,36.16-21,27.47-22,32.19-2.1,10.93,11,20.85,27.1,23.71-5.5,5.34-13.1,8.7-23.8,8.7m-209.5-278.92,11.4-35.14c14.7,10.18,26.3,15.4,42.6,7.2,13.6,11.67,22.4,24.46,28.3,38.13,3,6.96,5.2,14.16,6.9,21.5-4.1-1.99-8-3.86-12-5.6-15.1-6.58-28.7-11.8-40.9-15.9-13.9-4.72-25.8-8.08-36.3-10.07v-0.12zm149.4-120.01c4.5-0.5,20.2-1.74,24-2.24,6-0.99,10.5-3.23,14.2-5.84,2.6-1.981,11.3-13.412,15.8-14.404,34.3-7.454,73-3.852,81.9-1.864,11.8,2.483,14.9,13.416,14.9,13.416,6.5,0,20.7-0.123,26.6,1.118,7,1.367,9.6,1.864,9.7,6.584,0.4,8.07-20.2,20.99-20.2,20.99s4.4,24.24,11.9,44.86c0.5,1.24,0.8,2.49,1,3.73,0.4,3.36-0.4,7.08-3.2,13.67-5.6,12.67-19,19.63-37.3,22.49-13.3,1.98-30.2,22.84-38.5,26.2-2.2,0.87-9.9,1.24-19,1.49-6.4,0.12-13.4,0-19.6,0-4-0.12-7.7-0.25-10.3-0.25-24.5-0.99-49.7-2.86-58.1-4.72-2.7-0.62-5.3-6.34-6.7-9.57h59.8v-45.95s-47.2,0.24-61.4-1.49c-3.5-0.38-9.2-0.63-16,0.62-0.9,0.12-3.3-0.38-3.4-1.74,0-0.25,0-0.5-0.1-0.75h0.1c-1.2-8.45-0.7-25.85-0.7-25.85s-10.7-10.18-10.7-28.08c15.9-5.96,32.4-10.93,45.3-12.42m-156.8-29.938c2.3-8.324,19.8-5.592,19.8-5.592,7.9,2.237,14.2,13.791,16.6,19.506,4.9,11.674,22.6,4.347,17.7-7.33,0,0-4.9-11.058-11.8-18.512,0.4-3.975,16.2-2.609,21.1,0.869,4.3,5.467,7.8,13.792,8.7,18.636,2.4,12.547,21.3,9.068,19-3.354,0,0-1.1-5.589-3.9-11.431,8.8-0.496,19.7,10.562,28.5,30.686-6.6,2.36-13.3,4.84-19.6,7.33-3.1,16.4,0,33.3,9.6,45.35,0,6.22-0.1,13.54,0.6,20.13,1.3,11.68,5.4,21.12,17.9,19.26,4.2-0.74,11.8-1.74,16.1-1.24,14.8,1.74,36.6,1.49,46.9,1.49v13.54h-60.3c-4.2,4.22-1.2,19.74,6.2,30.8,3.9,5.71,8.9,10.19,14.7,11.18,4.5,0.75,13.9,1.74,25.2,2.74-8.4,13.29-9.2,29.94-10.2,39.39-16.7-6.22-31.8-13.92-45.7-21.13-1.6-10.93-4-21.62-7.8-32.18-6.6-18.39-17.6-36.02-35.9-51.8l-9.4-7.95-10.9,5.47c-5.9,2.98-9.1,2.61-14.5,0-3.5-1.87-7.5-4.47-12.9-8.45-0.5-0.37-1.1-0.75-1.7-1.12-5.2-3.85-11.1-8.08-17.6-12.42-13.8-9.2-8.3-16.16,6.7-21.13l13.3-4.97v-10.31c0-16.4-7.6-23.49-14.3-29.321-1.3-0.994-14-11.182-12.1-18.137m-509.6,14.659c76.62-29.693,160.14-46.093,247.56-46.093,87.44,0,170.84,16.4,247.64,46.093,9.5,17.509,22.5,18.879,22.5,30.689-25.2,8.94-39.9,31.68-15.4,50.94,0.9,0.62,1.8,1.24,2.7,1.87l-15.9,49.06c-15.8,0.49-25,5.71-29.9,12.92-5.9,8.57-5.7,20.25-3.4,30.57-12.3,7.33-19.8,30.81-14.1,47.46-58.7-27.83-124.58-43.49-194.14-43.49s-135.34,15.66-194.08,43.49c5.53-16.65-1.89-40.13-14.09-47.46,2.26-10.32,2.51-22-3.4-30.57-4.91-7.33-14.09-12.43-29.96-12.92l-15.84-49.06c0.88-0.63,1.76-1.25,2.51-1.87,24.67-19.26,9.81-42-15.22-50.94,0-11.81,12.96-13.18,22.52-30.69m-101.64-21.866c-2.77,5.842-3.9,11.431-3.9,11.431-2.26,12.422,16.61,15.901,18.87,3.354,1.01-4.844,4.4-13.169,8.81-18.636,4.78-3.478,20.63-4.844,21.13-0.869-7.05,7.454-11.83,18.512-11.83,18.512-4.9,11.677,12.83,19.004,17.74,7.33,2.39-5.715,8.68-17.269,16.6-19.506,0,0,17.49-2.733,19.75,5.592,1.89,6.955-10.94,17.143-12.07,18.137-6.67,5.831-14.34,12.921-14.34,29.321v10.31l13.2,4.97c15.1,4.97,20.63,11.93,6.8,21.13-6.54,4.34-12.46,8.57-17.61,12.42-0.63,0.37-1.14,0.75-1.64,1.12-5.53,3.98-9.56,6.58-12.95,8.45-5.41,2.61-8.56,2.98-14.47,0l-11.07-5.47-9.31,7.95c-18.36,15.78-29.3,33.41-35.85,51.8-3.9,10.44-6.29,21.25-7.79,32.18-13.84,7.21-28.94,14.91-45.67,21.13-1-9.45-1.88-26.1-10.18-39.39,11.32-1,20.5-1.99,25.15-2.74,5.79-0.99,10.82-5.47,14.59-11.18,7.43-11.06,10.57-26.58,6.29-30.8h-60.37v-13.54c10.44,0,32.2,0.25,47.04-1.49,4.28-0.5,11.82,0.5,15.97,1.24,12.58,1.86,16.73-7.58,17.99-19.26,0.76-6.59,0.63-13.91,0.63-20.13,9.44-12.05,12.58-28.95,9.44-45.35-6.17-2.49-12.83-4.97-19.63-7.33,8.93-20.124,19.88-31.182,28.68-30.686m79.75,157.29c-10.44,1.99-22.51,5.35-36.35,10.07-12.08,4.1-25.66,9.32-40.88,15.9-3.9,1.73-7.93,3.6-11.95,5.59,1.63-7.33,3.9-14.53,6.92-21.49,5.78-13.67,14.71-26.47,28.3-38.14,16.35,8.2,27.92,2.98,42.51-7.2l11.45,35.27zm-203.4-142.62c4.53,0.992,13.09,12.423,15.85,14.409,3.53,2.61,8.18,4.85,14.09,5.84,3.77,0.5,19.5,1.74,24.15,2.24,12.83,1.49,29.18,6.46,45.29,12.42,0,17.9-10.7,28.07-10.7,28.07s0.51,17.52-0.75,25.85c0,0.25,0,0.5-0.13,0.75,0,1.36-2.39,1.86-3.27,1.74-6.79-1.25-12.45-1-15.97-0.62-14.22,1.73-61.51,1.49-61.51,1.49v45.96h59.87c-1.38,3.23-4.15,8.95-6.79,9.57-8.3,1.86-33.46,3.73-57.99,4.72-2.64,0-6.16,0.12-10.19,0.25h-0.12c-6.16,0-13.21,0.12-19.75,0h-0.25c-8.81-0.25-16.48-0.62-18.74-1.49-8.18-3.36-25.04-24.11-38.37-26.21-18.24-2.86-31.7-9.82-37.23-22.49-2.89-6.59-3.65-10.31-3.27-13.67,0.12-1.24,0.5-2.49,1-3.73,7.55-20.62,11.95-44.85,11.95-44.85s-20.63-12.92-20.37-20.99c0.25-4.72,2.76-5.222,9.81-6.589,5.91-1.241,20.12-1.118,26.54-1.118,0,0,3.14-10.807,14.84-13.416,9.06-2.112,47.8-5.59,82.01,1.864m-223.54,356.81c-0.25-0.74,0.26-1.36,1.76-1.86,4.68-1.12,9.71-6.34,12.35-11.06,4.53-8.08,6.29-16.4,7.55-24.85,2.01-13.41,1-26.58-0.88-32.67-3.9-11.93-9.56-15.16-18.89-15.16-5.79,0-11.82,5.47-16.35,7.21-12.71,4.97-20.51-22.11-14.47-19.5,4.66,1.99,14.09,0.99,21.13-4.23,6.17-4.47,10.58-12.05,9.19-23.73-1.39-10.69-6.42-13.05-9.94-35.29-0.63-3.73-13.96,9.2-28.3,7.83-7.68-0.75-11.45-28.21-7.3-26.09,16.23,8.45,40-1.37,38.37-22.98,0-0.62,0-1.24-0.13-1.74-1.26-18.89-0.75-30.18-0.25-37.27,0.25-2.61-7.67,0.13-21.64,0.5-9.18,0.37-12.45-2.73-14.71-8.33-1.51-3.85-0.88-13.29,0.37-18.76,0.76-2.73,1.64-4.47,2.52-3.6,1.51,1.49,3.15,2.73,4.9,3.6,8.31,4.47,18.62,2.86,24.53,0,0.51-0.25,1.01-0.5,1.39-0.75,9.18-5.59,12.97-10.06,12.97-21.74,0-12.3,1.26-19.14,8.68-33.67-18.63-1.25-22.66-0.75-26.43-6.21-7.3-10.56,4.9-31.68,6.04-26.089,1.88,9.441,19.39,14.409,26.05,14.169,22.27-0.877,15.85-19.015,41.76-33.923-14.84-9.691-20.88-16.895-21.38-20.996-0.5-5.342,17.74-18.14,17.11-13.418-1.01,7.577,6.54,18.138,20,19.505,11.32,1.241,21-2.856,36.98-3.726,11.32-0.497,29.56,0.994,29.56,0.994s-13.21-19.507-10.69-24.352c1.51-2.735,16.98-7.952,15.09-2.858-1.76,4.472,3.4,13.544,12.2,18.636,10.32,5.84,18.62,8.199,33.34,11.182,6.91,1.365,6.91,2.608,5.53,6.958-0.63,2.235-1.51,5.218-2.14,7.577-31.57-2.234-73.84-1.24-77.99,15.282-14.97,0-30.94,2.485-35.84,6.71-11.83,10.062-12.84,27.079,10.56,44.849-4.28,21.49-10.44,30.94-11.19,41.87-0.38,5.72,0.75,11.8,4.4,20.13,9.06,20.62,30.31,28.32,49.31,31.92,4.65,1,9.68,5.97,16.22,11.81,4.91,4.35,10.7,9.19,17.86,13.05,7.93,4.21,40.88,3.85,70.32,2.23,12.45,10.06,13.46,24.1,14.21,35.28,0.88,16.15,7.42,24.85,10.57,28.83,5.79,7.58,21.38,23.73,34.34,16.52,2.39-1.36,2.76,1.87,2.14,6.09h14.96c2.9-17.39-0.25-33.79-9.18-26.59-10.19,8.33-20.88,3.73-27.67-4.35,30.82-11.68,63.27-31.06,78.62-37.77,68.05-29.69,96.85-29.44,107.43-25.46,3.53,1.36,6.8,5.46,5.29,14.03-8.45-3.73-21.28-2.98-21.28-2.98-12.2,0.87-10.82,18.88,1.39,18.01,29.32,0.13,35.86,19.26,34.73,30.07-0.5,5.72-1.38,10.57-10.56,9.7-8.43-16.78-21.16-21.87-21.16-21.87-11.07-5.22-18.86,11.05-7.92,16.27,5.28,2.74,13.84,9.94,12.58,19.51-0.63,4.48-2.89,7.96-9.06,8.95-7.55,1.12-17.36-0.38-24.53-5.34l-8.42-5.72s-32.08,14.41-52.83,11.93l-1.64,1.61-4.15,4.35c-11.32,11.67-22.39,28.94-32.96,46.34-9.81,16.14-20.37,34.16-31.69,51.43-0.76,1.25-1.64,2.49-2.52,3.86-25.66,38.27-49.31,60.75-72.7,60.75-10.82,0-18.49-3.36-23.78-8.7,16.1-2.86,29.19-12.79,27.05-23.72-1.01-4.72-16.98,3.97-22.01-32.19-0.38-2.36-0.63-4.84-0.89-7.58-1.13-15.03,1.39-26.96,2.14-27.09,22.77-3.6,16.86,23.99,32.96,34.67,1.38,1,2.89,1.74,4.65,2.36,12.08,4.35,22.27,2.61,30.32-2.36,12.95-7.95,20.12-24.35,20-37.52-17.86,0.99-20.26-12.17-14.59-23.1,2.51-4.6,3.77-13.18,3.77-13.18s7.42,5.84,16.98,4.48c11.95-1.74,19.12-17.65,21.63-32.8h-14.96c-1.01,6.46-4.53,15.65-7.93,16.77-7.8,2.48-23.02-8.81-25.66-11.67-2.14,10.8-5.16,20.49-8.68,27.57-7.67,15.41-6.92,38.64,9.31,44.73-3.4,9.56-18.37,15.78-25.79,9.81-3.52-2.86-6.03-12.55-8.8-18.01-11.07-21.87-29.43-21.37-47.42-15.9-1.64,0.5-7.3,21.49-5.16,42.61,0.13,2.11,0.38,4.23,0.63,6.21,2.89,21.5,8.05,33.31,16.1,36.91,7.67,3.35-37.23,12.3-37.23-22.49,0-1.99,0.38-8.2,0.75-14.42,0.26-6.33,0.63-12.79,0.63-15.28,0.13-11.68-3.77-32.05-29.68-32.05-4.91,0-12.46,2.48-17.87,11.55-3.52,5.84-7.17,21-8.05,25.22-0.88,3.6-1.51,7.08-2.01,10.56-2.14,14.42-1.89,26.84,2.27,31.07,3.52,3.73-29.44,2.61-23.28-26.97,0.26-0.62,0.63-2.11,1.14-4.1,1.63-6.21,4.52-16.89,5.28-20.38,1.01-4.34,2.39-11.8,0.63-18.88-2.89-10.68-11.83-17.39-23.27-17.39-7.8,0-16.98,3.98-22.39,17.39-1.64,3.85-6.67,28.83-13.71,39.26-1.13,1.87-2.39,3.23-3.77,3.98-9.06,5.22-25.68-0.5-26.82-3.98m-128.42,287.5c-42.772-13.42-68.432-45.61-76.608-83.37-6.166-28.45-2.518-60.13,11.32-89.33,1.886-4.23,4.152-8.45,6.416-12.68,4.654-8.56,9.81-17.01,14.716-24.96,7.798-12.43,15.348-23.49,20.128-31.31,8.427-13.66,15.219-28.45,19.37-45.85,3.019-13.17,4.528-27.83,3.898-44.85-0.501-12.79-3.646-33.42-9.432-50.56-19.496,0.75-28.303-0.99-33.838-6.71-3.27-3.23-5.284-7.82-7.674-13.91-3.394-8.45-5.786-17.52-9.306-25.48-3.524-7.7-8.68-16.52-17.74-22.98,15.978-11.81,61.388-28.82,90.19-2.11,12.83,11.8,15.72,25.59,15.72,39.26,0,14.66-6.41,20.75-14.21,25.22-2.39,1.5-5.03,2.74-7.55,4.1,7.17,30.69,11.32,64.85,5.04,98.02-3.65,18.64-10.57,37.03-22.141,54.29-9.309,13.92-20.127,30.32-29.437,47.83-3.898,7.33-7.42,14.79-10.566,22.49-9.81,24.36-15.346,52.07-7.168,79.52,0.63,1.99,1.256,3.85,1.886,5.84,14.716,39.5,55.347,64.85,110.82,59.01,1.76,7.7,4.66,15.03,8.55,22.12-26.66,3.35-51.19-0.13-62.38-3.6m92.32,12.79c-25.78-25.47-29.56-59.89-12.7-96.16,6.29-13.41,15.34-27.2,27.29-40.75,12.21-13.92,26.06-36.16,37.38-61.26,12.58-28.07,22.14-59.37,22.77-86.34,4.78-4.1,8.3-9.69,10.94-15.78,7.93-17.77,9.19-39.51,17.11-39.51,14.21,0,2.01,24.73-0.63,39.51-0.13,0.75-0.25,1.49-0.38,2.24-5.66,50.31,46.16,54.17,61.26,36.78,8.43-9.69-12.33,1.12-5.41-39.02,0.38-2.11,0.76-4.47,1.38-6.83,1.64-7.71,5.54-23.36,8.94-23.36,15.59,0,12.95,14.54,11.44,30.19-0.5,5.35-0.88,10.94-0.37,16.03,2.13,21.5,12.95,33.06,25.91,37.89,6.67,16.03,19.87,28.33,44.4,29.58-4.65,7.33-9.81,13.53-15.09,18.62-2.65,2.49-5.16,4.6-7.8,6.59-20.38,15.28-60,52.56-74.85,95.42-3.65,10.56-5.91,21.37-5.91,32.17-29.94,2.86-41.88,11.43-41.88,11.43-10.44,7.33-0.38,21.38,11.06,15.54,21.39-10.82,54.97-7.46,64.91-6.59,46.04,4.1,52.83,34.79,52.83,57.03,0,25.59-18.36,44.23-43.9,60.51-12.96,8.31-25.91,15.02-35.6,20.74-5.03,2.98-10.44,6.46-14.84,10.31-3.52,3.11-10.94,10.44-10.94,21.5,0,2.24,0.37,4.72,1.13,7.08,10.44,36.16,94.34,84.6,113.58,84.6,22.14,0,32.46,12.55,35.85,16.9,5.54,6.96,10.19,21.99,8.31,34.53-1.26,7.9-5.04,14.6-15.6,15.7,0.38-14.9-4.91-31.47-13.59-42.78-7.79-10.06-23.14,1.5-15.34,11.56,6.04,7.72,10.94,20.72,9.18,38.42-12.2,7-26.29,7.6-43.9,1.5,1.89-14.8-4.91-33.6-13.08-45.26-7.3-10.44-23.15,0.37-15.85,10.76,6.04,8.6,10.19,20.1,9.81,30.2-15.6,12.7-37.61,5-40.13,0-3.9-7.6-7.54-15.8-12.07-24.7-4.91-9.68-10.82-20.12-18.87-31.42-16.35-22.98-41-48.7-82.79-77.4-9.56-6.71-17.23-11.05-7.29-22.61,0.38-0.37,0.63-0.74,1.01-1.12,4.9-5.22,10.18-11.43,16.24-18.02,25.41-27.08,14.22-55.03-0.63-73.55-7.19-8.93-15.99-16.88-23.79-23.72-7.17-6.21-14.34-12.05-19.62-17.15h0.12zm-18.61,160.65c-18.75-13.42-20.38-17.15-13.09-27.09,1.01-1.37,2.27-2.86,3.53-4.47,5.91-7.33,13.96-15.78,23.14-26.22,18.11-20.63,24.65-41.62,24.15-61.13,18.37,17.77,31.97,38.51,11.95,60.01-11.32,12.18-21.26,22.24-25.53,31.81-5.54,12.3-2.14,23.86,18.61,38.27,67.45,46.83,86.56,82.98,100.15,111.16-2.89,1.2-6.42,2.3-10.82,3.5-8.55,1.9-15.72,2.6-22.51,3.2-3.53,0.4-5.79-9.6-14.47-26.7-13.08-25.82-37.23-60.85-95.11-102.34m1445.8,172.64c14.3,3.1,14.2,3.2,11.8,14.5l-3.5,15.4-39.5,175.9c-3.1,13.9-3.1,13.9-22.1,9.3-106.6-24.9-187.7,0.1-277.9,28.9-45.8,14.7-95.6,31-154.7,43.7-58.6,12.5-126.4,21.3-208.82,21.3-82.26,0-150.06-8.8-208.67-21.3-59.27-12.7-109.08-29-154.87-43.7-90.19-28.8-171.32-53.8-277.73-28.9-19,4.6-19.12,4.6-22.14-9.3l-39.52-175.9-3.52-15.4c-2.52-11.3-2.52-11.4,11.82-14.5,126.06-26.8,229.96-8.5,335.75,18.1,15.09,3.9,30.19,7.9,45.28,11.8,40.63,10.7,81.51,21.8,123.79,31,59.63,12.8,121.76,22.1,189.81,22.1,68.06,0,130.32-9.3,189.82-22.1,42.3-9.2,83.1-20.3,123.9-31,15.1-3.9,30.2-7.9,45.3-11.8,105.8-26.6,209.7-44.8,335.7-18.1m42.9-230.42c9.2,10.44,17.1,18.89,23.1,26.22,1.3,1.61,2.4,3.1,3.4,4.47,7.5,9.94,5.8,13.67-13,27.09-57.8,41.49-81.9,76.52-95,102.34-8.7,17.1-11,27.1-14.6,26.7-6.7-0.6-13.9-1.3-22.4-3.2-4.4-1.2-7.9-2.3-10.8-3.5,13.6-28.18,32.7-64.33,100.1-111.16,20.6-14.41,24.2-25.97,18.6-38.27-4.4-9.57-14.2-19.63-25.5-31.81-20.1-21.5-6.4-42.24,11.9-60.01-0.5,19.51,6.1,40.5,24.2,61.13m-5-102.87c-5.2,5.1-12.4,10.94-19.7,17.15-7.6,6.84-16.4,14.79-23.7,23.72-14.8,18.52-26.1,46.47-0.7,73.55,6.2,6.59,11.5,12.8,16.4,18.02,0.2,0.38,0.6,0.75,1,1.12,9.9,11.56,2.3,15.9-7.4,22.61-41.7,28.7-66.3,54.42-82.7,77.4-8.1,11.31-14.1,21.74-19,31.42-4.5,8.9-8.1,17.1-11.9,24.7-2.7,4.8-24.7,12.7-40.3,0-0.3-10.1,3.9-21.6,10-30.2,7.3-10.39-8.6-21.2-15.9-10.76-8.1,11.66-15.1,30.46-13.1,45.26-17.6,6.1-31.8,5.5-43.9-1.5-1.7-17.7,3.2-30.7,9.2-38.42,7.7-10.06-7.5-21.62-15.3-11.56-8.7,11.31-14,27.88-13.7,42.78-10.5-1.1-14.2-7.8-15.5-15.7-1.9-12.54,2.6-27.57,8.2-34.53,3.5-4.35,13.7-16.9,35.8-16.9,19.3,0,103.2-48.44,113.7-84.6,0.7-2.49,1-4.84,1-7.08,0-11.06-7.3-18.27-10.8-21.5-4.4-3.85-9.8-7.33-14.9-10.31-9.7-5.72-22.7-12.43-35.6-20.74-25.5-16.28-43.9-34.92-43.9-60.51,0-22.24,6.7-52.93,52.9-57.03,9.8-0.87,43.4-4.1,64.9,6.59,11.3,5.84,21.5-8.21,11.1-15.54,0,0-12-8.57-41.9-11.43-0.1-10.92-2.3-21.61-5.9-32.17-14.9-42.86-54.6-80.14-75-95.42-2.5-1.99-5.1-4.1-7.7-6.59-5.2-5.09-10.4-11.29-15-18.62,24.4-1.25,37.6-13.55,44.2-29.58,13-4.83,23.9-16.39,26.1-37.89,0.5-5.09,0.1-10.68-0.4-16.03-1.5-15.78-4.2-30.19,11.4-30.19,3.4,0,7.3,15.65,9,23.36,0.5,2.36,1,4.72,1.4,6.83,6.9,40.14-13.9,29.33-5.5,39.02,15.1,17.39,67,13.53,61.3-36.78-0.1-0.75-0.2-1.49-0.4-2.24-2.6-14.78-14.8-39.51-0.6-39.51,7.8,0,9.2,21.74,17,39.51,2.7,6.09,6.1,11.68,10.9,15.78,0.8,26.97,10.2,58.27,22.9,86.34,11.3,24.98,25.2,47.34,37.4,61.26,11.9,13.55,21,27.34,27.3,40.75,16.8,36.27,13.1,70.82-12.7,96.16m172.2-96.16-3.3,0c-8.3,37.76-33.8,69.95-76.7,83.37-11.1,3.47-35.6,6.95-62.4,3.6,4-7.09,6.8-14.42,8.6-22.12,55.5,5.84,96.1-19.51,110.7-59.01,0.8-1.99,1.4-3.85,2.1-5.84h-4.7,4.7c8.1-27.45,2.6-55.16-7.2-79.52-3.2-7.7-6.8-15.16-10.6-22.49-9.3-17.51-20.1-33.91-29.5-47.83-11.6-17.26-18.5-35.65-22-54.29-6.3-33.17-2.2-67.33,5-98.02-2.7-1.36-5.2-2.6-7.7-4.1-7.8-4.47-14.2-10.56-14.1-25.22,0-13.67,2.9-27.46,15.7-39.26,28.8-26.71,74.3-9.7,90.1,2.11-8.9,6.46-14.1,15.28-17.6,22.98-3.5,7.96-6,17.03-9.3,25.48-2.4,6.09-4.5,10.68-7.7,13.91-5.5,5.59-14.3,7.46-34,6.71-5.7,17.14-8.8,37.77-9.3,50.56-0.6,17.02,0.8,31.68,3.9,44.85,4.1,17.4,11,32.19,19.4,45.85,4.8,7.82,12.2,18.88,20.1,31.31,4.9,7.95,10.1,16.4,14.8,24.96,2.2,4.23,4.4,8.45,6.4,12.68,13.7,29.2,17.5,60.88,11.3,89.33h3.3zm-836.39-202.64c0-0.49,0-0.99-0.12-1.49h-29.69v0.75c0,6.46-5.28,11.8-11.95,11.8h-53.71v-23.61h53.71c6.42,0,11.57,4.85,11.95,11.06h29.81c-0.5-9.94-4.78-18.88-11.57-25.47,5.41-6.21,8.55-14.29,8.55-23.1,0-20.01-16.22-36.03-36.47-36.16h-85.79v123.75h87.29c21.01,0,37.99-16.77,37.99-37.53m-95.47-59.63,52.2,0c5.79,0,10.44,4.6,10.44,10.31,0,5.59-4.65,10.31-10.44,10.31h-52.2v-20.62zm11.95,394.7,29.81,0,0-43.1,63.5-80.51-35.83,0-42.51,56.28-42.64-56.28-35.85,0,63.52,80.51,0,43.1zm71.57,53.05,0-26.45-113.33,0,0,123.61,113.33,0,0-26.46-83.52,0,0-23.6,80.5,0,0-26.47-80.5,0,0-20.63,83.52,0zm8.93,165c0-21.13-17.23-38.14-38.61-38.39h-83.65v123.66h29.81v-47.1h34.34l35.72,47.1h35.9l-37.66-49.8c14.09-5.7,24.15-19.5,24.15-35.47m-41.63,11.57-50.82,0,0-23.38,50.82,0c6.54,0,11.82,5.35,11.82,11.81,0,6.37-5.28,11.57-11.82,11.57m-58.99-400.44,70.06,0,10.06,20.63,32.11,0-42.67-84.25-20.01-39.38-29.05,0-19.88,39.38-42.76,84.25,32.07,0,10.07-20.63zm31.19-63.62,3.9-7.81,3.77,7.81,18.12,37.16-43.9,0,18.11-37.16zm142.94-306.24l-1.1,3.48,25.6,6.83,2.7-10.31,5.3-19.26,15.6,4.1,5.3-19.62-15.6-4.11,6.8-24.97,12.5-46.1-33.4-8.82-62.6,54.92-6.6,5.72-4.6,17.02,57.1,15.15-7,25.97zm-19.3-54.04,0.3-0.25,10.9-9.57,17.1-14.91c6-6.09,11.2-11.93,17.4-18.76l0.6,0.25c-2.4,7.57-4.7,14.66-6.5,21.74l-3.3,11.68-4.9,18.14-31.6-8.32zm-526.43,968.04c-37.36-8.6-61.13,17.3-67.17,43-7.42,31.9,8.81,57.5,44.91,65.8,15.47,3.5,29.18,3.9,40.88,2l0.38-21.3c-9.82,0.9-19.5,0.5-31.7-2.3-16.73-3.8-29.69-14.5-27.17-29.8l72.2,16.8c1.13-2.4,2.77-6.7,3.9-11.7,5.41-23.1,0-54.2-36.23-62.5m9.69,46.8-44.91-10.2c3.27-8.8,12.96-20.6,28.81-17,17.73,4,17.86,19.9,16.1,27.2m422.16-972.98c29.93,1.62,46.79-19.62,51.28-51.68,0.5-3.48,0.9-7.08,1-10.69,2.1-35.91-11.4-64.477-44.61-66.217-32.33-1.613-50.57,24.847-52.58,62.117-0.25,5.1-0.13,10.07,0.25,14.79,2.39,29.33,16.86,50.31,44.53,51.68h0.13zm-17.36-65.59c1.51-28.71,10.69-43.25,23.27-42.63,13.71,0.75,20,16.41,18.49,44.74-0.13,4.22-0.5,8.2-1.01,11.8-3.02,21.25-10.69,32.06-22.26,31.44-10.57-0.5-17.49-11.19-18.62-31.44-0.25-4.22-0.12-8.82,0.13-13.91m-565.56,1061.1-4.15-115.7l-0.12-4.4-31.45,1.1,0.12,3.3,5.04,142.8,95.47-3.2-1.01-26-63.9,2.1zm371.09-1069.2,0.38-0.13,6.79,22.12,19.75,63.86,3.14,9.81,25.54-7.7-0.76-2.11-19.74-63.86-16.36-52.93-21.76,6.58-27.04,23.99,10.56,18.26,19.5-17.89zm-76.87,1047.7-33.34,43c-5.78,7.6-10.56,14.3-15.34,21.6l-0.63-0.2c1-8.3,1.89-16.8,2.14-26.3l1.88-54.3-32.2-11.6,2.27,113.6,29.68,10.7,76.86-85.2-31.32-11.3zm136.49-1025.7c8.56,10.69,22.52,15.66,37.62,13.67,12.2-1.74,20.62-6.46,25.91-13.67,0.12-0.12,0.12-0.12,0.25-0.25l0.5,0.13-0.12,0.12c-0.76,10.19-5.16,19.39-12.96,26.59-6.54,6.09-15.85,10.32-25.66,12.17-6.04,1.24-9.56,1.86-13.21,1.86l3.02,21c3.4-0.12,8.93-0.87,14.09-1.99,19.37-3.35,35.34-11.55,46.03-23.97,7.93-9.32,13.21-21.25,14.72-35.66,0.76-7.33,0.63-15.28-0.63-23.98-4.15-29.33-23.52-51.062-55.84-46.59-27.8,3.85-45.29,26.83-41.77,51.19,1.01,7.7,3.9,14.16,8.05,19.38m35.6-50.45c15.6-2.11,23.27,11.31,25.16,25.35,0.38,2.61,0.12,4.47-0.63,6.21-2.64,5.59-8.55,10.69-17.99,12.06-13.2,1.74-21.51-6.71-23.14-17.9-1.89-13.17,5.03-24.1,16.6-25.72m187.59,654.99,113.3,0,0-26.45-83.5,0,0-23.61,80.5,0,0-26.47-80.5,0,0-20.62,83.5,0,0-26.46-113.3,0,0,123.61zm127.5,435.93-30.8,6,12.1,61.4c0.5,2.6,0.5,5.2,0.1,7.3-1.4,6.8-6.6,15.2-17,17.1-13.6,2.7-21.2-6.3-24.4-22.8l-10.9-55.3-30.9,5.9,11.9,60.6c6.6,33.9,27.1,42.3,47.8,38.5,20.3-4,28.5-17.5,31.3-25.2l0.7-0.2,4.6,15.7,26.9-5.1c-2.1-8.3-4.7-19.1-7.3-32.4l-14.1-71.5zm82.6,15.4c-14.5-0.4-20.3-1.7-22-7.4-1.6-5.9,2.4-10.8,11.1-13.3,9.6-2.6,20.1-1.6,25.4-0.5l-0.4-22.1c-7.4-1.5-19.3-1.3-31.7,2.2-25.9,7.3-38.1,26.3-32.7,45,3.6,12.5,15.8,21.3,39.4,21.6,14,0.2,18.6,2.1,20.4,8.1,1.7,5.7-1.8,10.9-12.8,14-9.9,2.9-23.8,2.2-31,0.3l0.5,22.9c9.6,2,22.7,1.7,36.5-2.3,30.2-8.5,40.9-27,35.5-45.4-4.6-15.5-16.3-22.6-38.2-23.1m32.9-451.33,35.8,0-36.7-48.57c16.1-4.6,27.8-19.38,27.8-36.78,0-21.11-17.4-38.26-38.6-38.26h-76.2v123.61h29.8v-47.08h22.4l35.7,47.08zm-58.1-97.15,43.2,0c6.6,0,12,5.34,12,11.8s-5.4,11.68-12,11.81h-43.2v-23.61zm-450.6,540.08c-37.74-7.4-60.51,19.2-65.68,45.2-6.29,32.2,10.83,57.2,47.31,64.2,15.48,3,29.31,2.9,40.88,0.7l-0.37-21.4c-9.81,1.4-19.5,1.1-31.83-1.2-16.73-3.3-30.06-13.5-28.05-28.8l72.58,14.2c1.13-2.3,2.52-6.7,3.52-11.8,4.66-23.2-1.88-54.2-38.36-61.1m11.32,46.4-45.16-8.7c2.9-8.9,12.08-21.1,28.18-18,17.74,3.5,18.49,19.4,16.98,26.7m259.48-29.9-38.22,1.4-24.28,33.8c-2.77,3.8-5.66,8.4-8.05,12.5h-0.5l-3.27-94-31.45,1.1,5.41,154.7,31.45-1-1.14-34.2,9.06-11.2,31.95,44,39.14-1.4-50.08-61.5,39.98-44.2zm411.7-1111.8c8.3-7.45-9.2-27.823-16.3-27.823-17.6,0-29.6,19.003-29.6,19.003s39,15.03,45.9,8.82m-28.3-13.28c3-2.37,6.6-4.73,10.8-4.73,1,0,6.6,4.85,9,10.68-3.6-0.87-12.1-3.48-19.8-5.95m-552.82,1148.5-0.88-0.2,0.76-20.6-26.92-2.4c-0.13,9.2-0.76,19.4-2.27,35.2l-6.41,70.5,31.32,2.6,4.78-53.8c0.25-2.5,0.63-5,1.26-7.1,3.14-10.8,12.45-17.7,26.03-16.4,3.78,0.2,6.55,0.9,9.31,1.7l2.52-28.8c-2.39-0.7-4.03-1-6.92-1.2-11.45-1-25.66,4.9-32.58,20.5" fill-rule="evenodd" fill="#000"/></g></svg>

